mtllib heybeliada_materials.mtl
usemtl DeckTan
# https://github.com/mikedh/trimesh
v 6.20100000 4.31599023 11.60254297
v 6.20100000 5.51599023 11.60254297
v 7.70100000 4.31599023 11.60254297
v 7.70100000 5.51599023 11.60254297
v 6.20100000 -4.31599023 11.60254297
v 6.20100000 -5.51599023 11.60254297
v 7.70100000 -4.31599023 11.60254297
v 7.70100000 -5.51599023 11.60254297
v -23.66682227 -3.11388208 9.11000000
v -20.54774414 -3.11429443 9.11000000
v -17.42866406 -3.11470679 9.11000000
v -14.30958594 -3.11511914 9.11000000
v -11.19050391 -3.11553149 9.11000000
v -23.66682227 -1.55694104 9.11000000
v -20.54774414 -1.55714722 9.11000000
v -17.42866406 -1.55735339 9.11000000
v -14.30958594 -1.55755957 9.11000000
v -11.19050391 -1.55776575 9.11000000
v -23.66682227 0.00000000 9.11000000
v -20.54774414 0.00000000 9.11000000
v -17.42866406 0.00000000 9.11000000
v -14.30958594 0.00000000 9.11000000
v -11.19050391 0.00000000 9.11000000
v -23.66682227 1.55694104 9.11000000
v -20.54774414 1.55714722 9.11000000
v -17.42866406 1.55735339 9.11000000
v -14.30958594 1.55755957 9.11000000
v -11.19050391 1.55776575 9.11000000
v -23.66682227 3.11388208 9.11000000
v -20.54774414 3.11429443 9.11000000
v -17.42866406 3.11470679 9.11000000
v -14.30958594 3.11511914 9.11000000
v -11.19050391 3.11553149 9.11000000
v 8.85176172 -1.20573682 19.85100000
v 8.98836328 -0.96913428 19.85100000
v 9.39016016 -0.27320508 19.85100000
v 9.39016016 0.00000000 19.85100000
v 9.39016016 0.27320508 19.85100000
v 9.25355859 0.50980762 19.85100000
v 8.85176172 1.20573682 19.85100000
v 8.61516016 1.34233936 19.85100000
v 8.37855859 1.47894189 19.85100000
v 8.10535156 1.47894189 19.85100000
v 7.30176172 1.47894189 19.85100000
v 7.06516016 1.34233936 19.85100000
v 6.82855859 1.20573682 19.85100000
v 6.69195313 0.96913428 19.85100000
v 6.29016016 0.27320508 19.85100000
v 6.29016016 0.00000000 19.85100000
v 6.29016016 -0.27320508 19.85100000
v 6.42676172 -0.50980762 19.85100000
v 6.82855859 -1.20573682 19.85100000
v 7.06516016 -1.34233936 19.85100000
v 7.30176172 -1.47894189 19.85100000
v 7.57496875 -1.47894189 19.85100000
v 8.37855859 -1.47894189 19.85100000
v 8.61516016 -1.34233936 19.85100000
v 16.09686719 -6.31599023 11.60254297
v 20.19686719 -0.56213922 11.60254297
v 20.19686719 0.56213922 11.60254297
v 16.09686719 6.31599023 11.60254297
v 13.59687109 6.31599023 11.60254297
v 12.59687109 4.31599023 11.60254297
v 12.59687109 -4.31599023 11.60254297
v 13.59687109 -6.31599023 11.60254297
v 5.85391016 -6.98737646 8.85889063
v 9.05875391 -6.95227148 8.85889063
v 12.17647656 -6.88348730 8.85889063
v 15.20046875 -6.78263135 8.85889063
v 18.27392187 -6.64401025 8.85889063
v 9.05875391 -3.47613574 8.85889063
v 12.17647656 -3.44174365 8.85889063
v 15.20046875 -3.39131567 8.85889063
v 18.27392187 -3.32200513 8.85889063
v 5.85391016 0.00000000 8.85889063
v 9.05875391 0.00000000 8.85889063
v 12.17647656 -0.00000000 8.85889063
v 15.20046875 0.00000000 8.85889063
v 18.27392187 0.00000000 8.85889063
v 9.05875391 3.47613574 8.85889063
v 12.17647656 3.44174365 8.85889063
v 15.20046875 3.39131567 8.85889063
v 18.27392187 3.32200513 8.85889063
v 5.85391016 6.98737646 8.85889063
v 9.05875391 6.95227148 8.85889063
v 12.17647656 6.88348730 8.85889063
v 15.20046875 6.78263135 8.85889063
v 18.27392187 6.64401025 8.85889063
v 5.85391016 -4.65825098 8.85889063
v 5.85391016 -2.32912549 8.85889063
v 5.85391016 2.32912549 8.85889063
v 5.85391016 4.65825098 8.85889063
v -11.31571484 0.00000000 8.85889063
v -11.29540234 6.70840625 8.85889063
v -11.02631641 6.71741504 8.85889063
v -11.02592187 6.71742822 8.85889063
v -9.89719141 6.75377393 8.85889063
v -9.89677734 6.75378662 8.85889063
v -9.76526953 6.75786816 8.85889063
v -8.76811328 6.78776270 8.85889063
v -8.76767187 6.78777539 8.85889063
v -7.63487891 6.81944385 8.85889063
v -7.63441016 6.81945654 8.85889063
v -6.49980078 6.84867187 8.85889063
v -6.49930078 6.84868408 8.85889063
v -5.36410937 6.87534033 8.85889063
v -5.36357813 6.87535254 8.85889063
v -4.22838672 6.89935742 8.85889063
v -4.22782031 6.89936865 8.85889063
v -3.09396875 6.92061523 8.85889063
v -3.09336328 6.92062598 8.85889063
v -2.26526953 6.93436572 8.85889063
v -1.96139062 6.93902246 8.85889063
v -1.96074219 6.93903223 8.85889063
v -0.83157812 6.95447852 8.85889063
v -0.83088672 6.95448730 8.85889063
v -0.60145313 6.95726123 8.85889063
v -0.60145313 2.31908716 8.85889063
v -0.60145313 -2.31908716 8.85889063
v -0.60145313 -6.95726123 8.85889063
v -0.83088672 -6.95448730 8.85889063
v -0.83157812 -6.95447852 8.85889063
v -1.96074219 -6.93903223 8.85889063
v -1.96139062 -6.93902246 8.85889063
v -2.26526953 -6.93436572 8.85889063
v -3.09336328 -6.92062598 8.85889063
v -3.09396875 -6.92061523 8.85889063
v -4.22782031 -6.89936865 8.85889063
v -4.22838672 -6.89935742 8.85889063
v -5.36357813 -6.87535254 8.85889063
v -5.36410937 -6.87534033 8.85889063
v -6.49930078 -6.84868408 8.85889063
v -6.49980078 -6.84867187 8.85889063
v -7.63441016 -6.81945654 8.85889063
v -7.63487891 -6.81944385 8.85889063
v -8.76767187 -6.78777539 8.85889063
v -8.76811328 -6.78776270 8.85889063
v -9.19802734 -6.77510303 8.85889063
v -9.89677734 -6.75378662 8.85889063
v -9.89719141 -6.75377393 8.85889063
v -11.02592187 -6.71742822 8.85889063
v -11.02631641 -6.71741504 8.85889063
v -11.29540234 -6.70840625 8.85889063
v -11.29468359 -3.15279443 8.85889063
v -11.31571484 -3.15279102 8.85889063
v -11.31571484 3.15279102 8.85889063
v -11.29468359 3.15279443 8.85889063
v -9.89677734 0.00000000 8.85889063
v -8.76767187 0.00000000 8.85889063
v -7.63441016 -0.00000000 8.85889063
v -1.96074219 0.00000000 8.85889063
v -3.09336328 0.00000000 8.85889063
v -6.49930078 -0.00000000 8.85889063
v -4.22782031 0.00000000 8.85889063
v -5.36357813 0.00000000 8.85889063
v -24.97047852 6.56148779 6.05889063
v -23.96649609 6.61834570 6.05889063
v -22.93565430 6.67448145 6.05889063
v -21.89856836 6.72876025 6.05889063
v -20.92354883 6.77788232 6.05889063
v -19.91156055 6.82702539 6.05889063
v -18.89948633 6.87437988 6.05889063
v -17.88733203 6.91996191 6.05889063
v -16.87509766 6.96377295 6.05889063
v -15.86278906 7.00581006 6.05889063
v -14.85041016 7.04606689 6.05889063
v -13.83795703 7.08453125 6.05889063
v -12.82544141 7.12118652 6.05889063
v -11.77762109 7.15719238 6.05889063
v -10.80021484 7.18898779 6.05889063
v -9.80553125 7.21954346 6.05889063
v -8.74282422 7.25014648 6.05889063
v -7.76193750 7.27648535 6.05889063
v -6.74907031 7.30171973 6.05889063
v -5.73615625 7.32491602 6.05889063
v -4.72319531 7.34602197 6.05889063
v -3.71019141 7.36498193 6.05889063
v -2.70745703 7.38157520 6.05889063
v -1.68407031 7.39621143 6.05889063
v -0.67096484 7.40833936 6.05889063
v 0.33678516 7.41799170 6.05889063
v 1.35532812 7.42521582 6.05889063
v 2.36849609 7.42977930 6.05889063
v 3.38167578 7.43162158 6.05889063
v 4.39485547 7.43062598 6.05889063
v 5.40802734 7.42666602 6.05889063
v -24.97047852 -6.56148779 6.05889063
v -23.96649609 -6.61834570 6.05889063
v -22.93565430 -6.67448145 6.05889063
v -21.89856836 -6.72876025 6.05889063
v -20.92354883 -6.77788232 6.05889063
v -19.91156055 -6.82702539 6.05889063
v -18.89948633 -6.87437988 6.05889063
v -17.88733203 -6.91996191 6.05889063
v -16.87509766 -6.96377295 6.05889063
v -15.86278906 -7.00581006 6.05889063
v -14.85041016 -7.04606689 6.05889063
v -13.83795703 -7.08453125 6.05889063
v -12.82544141 -7.12118652 6.05889063
v -11.77762109 -7.15719238 6.05889063
v -10.80021484 -7.18898779 6.05889063
v -9.80553125 -7.21954346 6.05889063
v -8.74282422 -7.25014648 6.05889063
v -7.76193750 -7.27648535 6.05889063
v -6.74907031 -7.30171973 6.05889063
v -5.73615625 -7.32491602 6.05889063
v -4.72319531 -7.34602197 6.05889063
v -3.71019141 -7.36498193 6.05889063
v -2.70745703 -7.38157520 6.05889063
v -1.68407031 -7.39621143 6.05889063
v -0.67096484 -7.40833936 6.05889063
v 0.33678516 -7.41799170 6.05889063
v 1.35532812 -7.42521582 6.05889063
v 2.36849609 -7.42977930 6.05889063
v 3.38167578 -7.43162158 6.05889063
v 4.39485547 -7.43062598 6.05889063
v 5.40802734 -7.42666602 6.05889063
v 5.40802734 -0.00000000 6.05889063
f 4 3 1
f 4 1 2
f 8 6 5
f 8 5 7
f 15 10 9
f 15 9 14
f 16 11 10
f 16 10 15
f 17 12 11
f 17 11 16
f 18 13 12
f 18 12 17
f 20 15 14
f 20 14 19
f 21 16 15
f 21 15 20
f 22 17 16
f 22 16 21
f 23 18 17
f 23 17 22
f 25 20 19
f 25 19 24
f 26 21 20
f 26 20 25
f 27 22 21
f 27 21 26
f 28 23 22
f 28 22 27
f 30 25 24
f 30 24 29
f 31 26 25
f 31 25 30
f 32 27 26
f 32 26 31
f 33 28 27
f 33 27 32
f 53 51 52
f 51 49 50
f 55 53 54
f 51 53 55
f 51 43 47
f 47 48 49
f 47 49 51
f 47 45 46
f 45 43 44
f 43 45 47
f 55 43 51
f 35 55 57
f 34 35 57
f 37 35 36
f 55 35 43
f 37 39 35
f 42 43 41
f 39 41 43
f 41 39 40
f 35 39 43
f 39 37 38
f 57 55 56
f 64 63 1
f 64 1 5
f 63 64 59
f 63 59 60
f 58 64 65
f 62 63 61
f 61 63 60
f 58 59 64
f 72 68 67
f 72 67 71
f 73 69 68
f 73 68 72
f 74 70 69
f 74 69 73
f 77 72 71
f 77 71 76
f 78 73 72
f 78 72 77
f 79 74 73
f 79 73 78
f 81 77 76
f 81 76 80
f 82 78 77
f 82 77 81
f 83 79 78
f 83 78 82
f 86 81 80
f 86 80 85
f 87 82 81
f 87 81 86
f 88 83 82
f 88 82 87
f 66 89 71
f 66 71 67
f 71 89 90
f 76 71 90
f 76 90 75
f 80 91 92
f 85 92 84
f 80 76 75
f 80 75 91
f 92 85 80
f 139 148 138
f 139 140 148
f 136 149 135
f 149 136 137
f 149 137 138
f 141 148 140
f 147 96 93
f 145 93 144
f 142 143 144
f 138 148 149
f 141 144 93
f 149 150 135
f 102 150 149
f 149 148 99
f 141 142 144
f 96 141 93
f 134 135 150
f 122 123 151
f 151 123 124
f 125 151 124
f 121 119 120
f 115 122 151
f 121 122 115
f 126 152 125
f 132 153 131
f 133 153 132
f 150 133 134
f 154 128 129
f 129 130 155
f 131 155 130
f 152 126 127
f 128 154 127
f 133 150 153
f 148 141 96
f 147 94 95
f 96 147 95
f 97 98 148
f 97 148 96
f 100 101 149
f 99 148 98
f 146 147 93
f 101 102 149
f 103 150 102
f 103 104 150
f 105 153 104
f 105 106 153
f 153 150 104
f 149 99 100
f 155 153 106
f 129 155 154
f 108 154 155
f 155 107 108
f 107 155 106
f 109 154 108
f 125 152 151
f 152 112 151
f 110 154 109
f 115 116 121
f 154 110 152
f 121 116 118
f 121 118 119
f 127 154 152
f 152 111 112
f 112 113 151
f 114 151 113
f 116 117 118
f 115 151 114
f 110 111 152
f 131 153 155
f 188 157 156
f 188 156 187
f 189 158 157
f 189 157 188
f 190 159 158
f 190 158 189
f 191 160 159
f 191 159 190
f 192 161 160
f 192 160 191
f 193 162 161
f 193 161 192
f 194 163 162
f 194 162 193
f 195 164 163
f 195 163 194
f 196 165 164
f 196 164 195
f 197 166 165
f 197 165 196
f 198 167 166
f 198 166 197
f 199 168 167
f 199 167 198
f 200 169 168
f 200 168 199
f 201 170 169
f 201 169 200
f 202 171 170
f 202 170 201
f 203 172 171
f 203 171 202
f 204 173 172
f 204 172 203
f 205 174 173
f 205 173 204
f 206 175 174
f 206 174 205
f 207 176 175
f 207 175 206
f 208 177 176
f 208 176 207
f 209 178 177
f 209 177 208
f 210 179 178
f 210 178 209
f 211 180 179
f 211 179 210
f 212 181 180
f 212 180 211
f 213 182 181
f 213 181 212
f 214 183 182
f 214 182 213
f 215 184 183
f 215 183 214
f 216 185 184
f 216 184 215
f 218 186 185
f 217 218 216
f 185 216 218

