mtllib heybeliada_materials.mtl
usemtl GlassBlack
# https://github.com/mikedh/trimesh
v 18.29414844 -3.90048535 11.02960937
v 18.44482813 -3.90760181 10.84209180
v 18.59550781 -3.91467627 10.65457422
v 18.58888281 -3.48242358 11.02958691
v 18.74032031 -3.48700366 10.84206250
v 18.89176563 -3.49153467 10.65453906
v 18.88361719 -3.06436182 11.02956543
v 19.03582031 -3.06640552 10.84203418
v 19.18802344 -3.06839307 10.65450293
v 19.16134375 -2.64743042 11.04946094
v 19.32577344 -2.67405469 10.82443848
v 19.49026562 -2.70067358 10.59946094
v 19.50644531 -2.70553857 10.57541602
v 19.51352344 -2.70965015 10.56319336
v 19.51973437 -2.71498853 10.55097559
v 19.52495312 -2.72165283 10.53885059
v 19.52896094 -2.72964429 10.52707227
v 19.53160156 -2.73893506 10.51586523
v 19.53275000 -2.74941260 10.50548145
v 19.53232812 -2.76092432 10.49612891
v 19.53036719 -2.77319629 10.48802246
v 19.52696875 -2.78595532 10.48127344
v 19.52226562 -2.79895752 10.47590527
v 19.51648438 -2.81192407 10.47190332
v 19.50975781 -2.82476514 10.46916113
v 19.49410156 -2.84963452 10.46708496
v 19.37725781 -3.01712305 10.46708496
v 19.26040625 -3.18461133 10.46708496
v 19.14355469 -3.35209961 10.46708496
v 19.02671094 -3.51958813 10.46708496
v 18.90985937 -3.68707642 10.46708496
v 18.79300781 -3.85456494 10.46708496
v 18.67616406 -4.02205347 10.46708496
v 18.55931250 -4.18954199 10.46708496
v 18.55289844 -4.19841895 10.46734863
v 18.54622656 -4.20707080 10.46811328
v 18.53223438 -4.22366113 10.47101758
v 18.51756250 -4.23925586 10.47556348
v 18.50238281 -4.25383838 10.48156445
v 18.48685938 -4.26736572 10.48885352
v 18.47107812 -4.27985889 10.49732324
v 18.45511719 -4.29129980 10.50687891
v 18.43905469 -4.30166650 10.51744531
v 18.42276563 -4.31104199 10.52912012
v 18.40652344 -4.31923437 10.54172070
v 18.39041406 -4.32618262 10.55520410
v 18.37451563 -4.33180566 10.56953516
v 18.35890625 -4.33600635 10.58470801
v 18.34373438 -4.33864014 10.60066211
v 18.32916406 -4.33954199 10.61735547
v 18.32216406 -4.33927930 10.62595605
v 18.31539062 -4.33850293 10.63470996
v 18.14610938 -4.31188281 10.85969727
v 17.97685938 -4.28525977 11.08470996
v 17.96029688 -4.28043994 11.10859766
v 17.95301562 -4.27636670 11.12075879
v 17.94658594 -4.27107324 11.13293164
v 17.94114844 -4.26445313 11.14503711
v 17.93692187 -4.25649805 11.15681934
v 17.93409375 -4.24722803 11.16805371
v 17.93278906 -4.23675146 11.17848242
v 17.93308594 -4.22520801 11.18789551
v 17.93498437 -4.21288916 11.19605762
v 17.93837500 -4.20007813 11.20285059
v 17.94310156 -4.18702881 11.20824609
v 17.94894531 -4.17402979 11.21226270
v 17.95575000 -4.16116943 11.21500879
v 17.97160937 -4.13629883 11.21708496
v 18.09010156 -3.96881030 11.21708496
v 18.20858594 -3.80132178 11.21708496
v 18.32707031 -3.63383325 11.21708496
v 18.44555469 -3.46634497 11.21708496
v 18.56404687 -3.29885645 11.21708496
v 18.68253125 -3.13136816 11.21708496
v 18.80101563 -2.96387964 11.21708496
v 18.91950000 -2.79639136 11.21708496
v 18.92596875 -2.78755225 11.21682422
v 18.93268750 -2.77893237 11.21606543
v 18.94674219 -2.76238818 11.21318066
v 18.96144531 -2.74681592 11.20865625
v 18.97664063 -2.73223462 11.20267285
v 18.99215625 -2.71868872 11.19539062
v 19.00792188 -2.70616382 11.18691406
v 19.02384375 -2.69468115 11.17733496
v 19.03985156 -2.68426685 11.16672559
v 19.05592969 -2.67492017 11.15508984
v 19.07194531 -2.66673975 11.14252051
v 19.08782031 -2.65979102 11.12905664
v 19.10346094 -2.65415967 11.11473145
v 19.11878906 -2.64994678 11.09955078
v 19.13366406 -2.64730054 11.08357617
v 19.14792188 -2.64639136 11.06685254
v 19.15475000 -2.64665283 11.05823340
v 19.55145312 -2.11697168 11.02960547
v 19.70536719 -2.11326855 10.84208691
v 19.85927344 -2.10949292 10.65457031
v 19.85674219 -1.68394421 11.02958301
v 20.01143750 -1.67761426 10.84205664
v 20.16614063 -1.67120459 10.65453320
v 20.16203125 -1.25091663 11.02955957
v 20.31751562 -1.24195996 10.84202637
v 20.47300000 -1.23291614 10.65449609
v 20.20815625 -0.97480414 11.21708496
v 20.21985937 -0.95916846 11.21626855
v 20.23226563 -0.94423901 11.21393848
v 20.24521094 -0.93006323 11.21025781
v 20.25856250 -0.91666193 11.20535840
v 20.27221094 -0.90407251 11.19936133
v 20.28609375 -0.89228772 11.19234961
v 20.30013281 -0.88132416 11.18439453
v 20.31428125 -0.87120013 11.17555762
v 20.32844531 -0.86195862 11.16590820
v 20.34259375 -0.85360797 11.15546777
v 20.35668750 -0.84618677 11.14427051
v 20.37066406 -0.83974396 11.13234473
v 20.38447656 -0.83433588 11.11970312
v 20.39803125 -0.83004291 11.10638184
v 20.41125781 -0.82695593 11.09240137
v 20.42403906 -0.82518719 11.07779785
v 20.61309375 -0.80907849 10.85282520
v 20.80207813 -0.79296600 10.62779785
v 20.81300000 -0.79260907 10.61428516
v 20.82335156 -0.79351813 10.60036133
v 20.83300781 -0.79582007 10.58609082
v 20.84178906 -0.79965125 10.57158203
v 20.84951562 -0.80519257 10.55688672
v 20.85588281 -0.81253949 10.54232812
v 20.86060156 -0.82175909 10.52819434
v 20.86341406 -0.83279462 10.51487695
v 20.86415625 -0.84471759 10.50340918
v 20.86296875 -0.85780969 10.49333789
v 20.85995313 -0.87171405 10.48488281
v 20.85525781 -0.88608093 10.47813379
v 20.84917187 -0.90049890 10.47311035
v 20.84189063 -0.91482916 10.46967480
v 20.83363281 -0.92889252 10.46771094
v 20.82457812 -0.94258295 10.46708496
v 20.69769531 -1.12445264 10.46708496
v 20.57081250 -1.30632251 10.46708496
v 20.44392188 -1.48819226 10.46708496
v 20.31703906 -1.67006213 10.46708496
v 20.19015625 -1.85193213 10.46708496
v 20.06327344 -2.03380200 10.46708496
v 19.93639063 -2.21567212 10.46708496
v 19.80950781 -2.39754199 10.46708496
v 19.80313281 -2.40637964 10.46734570
v 19.79650000 -2.41500049 10.46810449
v 19.78261719 -2.43154907 10.47099121
v 19.76807812 -2.44712744 10.47551758
v 19.75304687 -2.46171313 10.48150488
v 19.73768750 -2.47526050 10.48878906
v 19.72207031 -2.48778345 10.49726660
v 19.70628906 -2.49926074 10.50684277
v 19.69041406 -2.50966626 10.51744531
v 19.67442188 -2.51902710 10.52910059
v 19.65848438 -2.52721411 10.54168555
v 19.64268750 -2.53416357 10.55516113
v 19.62711719 -2.53979126 10.56949219
v 19.61185156 -2.54399805 10.58467187
v 19.59703906 -2.54663745 10.60063672
v 19.58284375 -2.54754175 10.61734375
v 19.57603125 -2.54727979 10.62595117
v 19.56946094 -2.54650293 10.63470996
v 19.40542187 -2.51988403 10.85968652
v 19.24144531 -2.49325952 11.08470996
v 19.22531250 -2.48837451 11.10882422
v 19.21827344 -2.48424097 11.12108691
v 19.21211719 -2.47887158 11.13334375
v 19.20697656 -2.47216650 11.14550586
v 19.20307813 -2.46412720 11.15731348
v 19.20057031 -2.45478564 11.16853809
v 19.19957812 -2.44426221 11.17892090
v 19.20016406 -2.43273169 11.18824512
v 19.20229687 -2.42045996 11.19631152
v 19.20586719 -2.40772095 11.20301758
v 19.21071875 -2.39475586 11.20834375
v 19.21664063 -2.38183887 11.21231152
v 19.22348438 -2.36905396 11.21502832
v 19.23932813 -2.34429858 11.21708496
v 19.36042969 -2.17311182 11.21708496
v 19.48153125 -2.00192505 11.21708496
v 19.60264062 -1.83073828 11.21708496
v 19.72374219 -1.65955139 11.21708496
v 19.84484375 -1.48836462 11.21708496
v 19.96594531 -1.31717786 11.21708496
v 20.08704687 -1.14599097 11.21708496
v 17.04266406 -5.67574268 11.02961133
v 17.19013281 -5.69363184 10.84209473
v 17.33760156 -5.71150928 10.65457715
v 17.33300781 -5.26391016 11.02958887
v 17.48122656 -5.27930029 10.84206543
v 17.62944531 -5.29467187 10.65454199
v 17.62334375 -4.85207715 11.02956738
v 17.77232031 -4.86496875 10.84203711
v 17.92128906 -4.87783398 10.65450684
v 17.89758594 -4.43943018 11.04946094
v 18.06728906 -4.46605322 10.82444922
v 18.23701563 -4.49267383 10.59946094
v 18.25360937 -4.49747510 10.57563672
v 18.26092969 -4.50152832 10.56351172
v 18.26740625 -4.50679297 10.55137598
v 18.27291406 -4.51337500 10.53930664
v 18.27723437 -4.52128418 10.52755469
v 18.28018750 -4.53050488 10.51633691
v 18.28164063 -4.54093457 10.50591211
v 18.28150000 -4.55245752 10.49647266
v 18.27977344 -4.56477393 10.48827344
v 18.27654688 -4.57760205 10.48143945
v 18.27197656 -4.59068652 10.47600293
v 18.26626562 -4.60373389 10.47195215
v 18.25957813 -4.61664990 10.46918066
v 18.24390625 -4.64163477 10.46708496
v 18.12706250 -4.80912305 10.46708496
v 18.01021094 -4.97661133 10.46708496
v 17.89335937 -5.14409961 10.46708496
v 17.77651562 -5.31158789 10.46708496
v 17.65966406 -5.47907666 10.46708496
v 17.54282031 -5.64656494 10.46708496
v 17.42596875 -5.81405371 10.46708496
v 17.30911719 -5.98154199 10.46708496
v 17.30267188 -5.99045801 10.46735059
v 17.29595313 -5.99914160 10.46812109
v 17.28185156 -6.01577295 10.47104395
v 17.26704687 -6.03138379 10.47560840
v 17.25171875 -6.04596289 10.48162305
v 17.23603906 -6.05947070 10.48891699
v 17.22008594 -6.07193359 10.49737988
v 17.20395313 -6.08333838 10.50691504
v 17.18771094 -6.09366650 10.51744531
v 17.17111719 -6.10305664 10.52914160
v 17.15457031 -6.11125488 10.54175586
v 17.13814062 -6.11820264 10.55524707
v 17.12191406 -6.12382080 10.56958008
v 17.10596094 -6.12801465 10.58474707
v 17.09043750 -6.13064307 10.60068848
v 17.07549219 -6.13154199 10.61736816
v 17.06829688 -6.13127930 10.62596191
v 17.06132812 -6.13050293 10.63470996
v 16.88679688 -6.10388135 10.85970801
v 16.71227344 -6.07725977 11.08470996
v 16.69530469 -6.07250439 11.10837305
v 16.68777344 -6.06849170 11.12043262
v 16.68107812 -6.06327393 11.13251953
v 16.67534375 -6.05673975 11.14456445
v 16.67080469 -6.04887158 11.15631641
v 16.66764844 -6.03967725 11.16755859
v 16.66602344 -6.02925342 11.17802734
v 16.66603125 -6.01769971 11.18753223
v 16.66767969 -6.00533496 11.19579199
v 16.67088281 -5.99245166 11.20267480
v 16.67548437 -5.97931543 11.20814355
v 16.68125000 -5.96623096 11.21220996
v 16.68801562 -5.95329102 11.21498828
v 16.70389844 -5.92829883 11.21708496
v 16.82238281 -5.76081006 11.21708496
v 16.94087500 -5.59332178 11.21708496
v 17.05935937 -5.42583350 11.21708496
v 17.17784375 -5.25834473 11.21708496
v 17.29632812 -5.09085645 11.21708496
v 17.41481250 -4.92336816 11.21708496
v 17.53330469 -4.75587988 11.21708496
v 17.65178906 -4.58839111 11.21708496
v 17.65828906 -4.57951221 11.21682227
v 17.66505469 -4.57086035 11.21605762
v 17.67922656 -4.55427344 11.21315332
v 17.69406250 -4.53868457 11.20861035
v 17.70940625 -4.52410693 11.20261230
v 17.72508594 -4.51058105 11.19532520
v 17.74102344 -4.49808691 11.18685645
v 17.75712500 -4.48664111 11.17729883
v 17.77332812 -4.47626709 11.16672559
v 17.78971094 -4.46690527 11.15506934
v 17.80603906 -4.45871924 11.14248535
v 17.82223438 -4.45177197 11.12901367
v 17.83821094 -4.44614551 11.11468848
v 17.85389062 -4.44193848 11.09951465
v 17.86912500 -4.43929785 11.08355176
v 17.88375781 -4.43839160 11.06684082
v 17.89078906 -4.43865283 11.05822852
v 20.67595312 -0.18662512 11.02958203
v 20.83273438 -0.18184198 10.84208008
v 20.98950781 -0.17702321 10.65458105
v 20.67595312 -0.00000000 11.02958203
v 20.83273438 -0.00000000 10.84208008
v 20.98950781 -0.00000000 10.65458105
v 20.67595312 0.18662512 11.02958203
v 20.83273438 0.18184198 10.84208008
v 20.98950781 0.17702321 10.65458105
v 21.14628125 -0.23796753 10.46708496
v 21.14578906 -0.24886865 10.46768164
v 21.14431250 -0.25955347 10.46944336
v 21.14192969 -0.26982541 10.47229590
v 21.13871875 -0.27953625 10.47613477
v 21.13480469 -0.28853973 10.48081543
v 21.13027344 -0.29681290 10.48623242
v 21.12522656 -0.30431705 10.49226758
v 21.11975000 -0.31104227 10.49882031
v 21.11403906 -0.31687009 10.50564941
v 21.10804687 -0.32196091 10.51281641
v 21.09541406 -0.32998001 10.52792285
v 21.08886719 -0.33293292 10.53575488
v 21.08220312 -0.33519980 10.54372070
v 21.07546875 -0.33678970 10.55178223
v 21.06867187 -0.33770941 10.55990527
v 20.95370313 -0.34760803 10.69740527
v 20.83873438 -0.35750662 10.83490527
v 20.72375781 -0.36740524 10.97240527
v 20.60878906 -0.37730386 11.10990527
v 20.60049219 -0.37752441 11.11982715
v 20.59221094 -0.37675900 11.12973242
v 20.57588281 -0.37224460 11.14925977
v 20.56793750 -0.36846271 11.15876367
v 20.56022656 -0.36363889 11.16798535
v 20.55282813 -0.35774765 11.17683691
v 20.54582031 -0.35076733 11.18520996
v 20.54032031 -0.34404010 11.19178906
v 20.53525781 -0.33652985 11.19784961
v 20.53071094 -0.32824631 11.20328906
v 20.52677344 -0.31922806 11.20799121
v 20.52354688 -0.30949777 11.21184863
v 20.52115625 -0.29920245 11.21471582
v 20.51967188 -0.28849121 11.21648633
v 20.51917188 -0.27756201 11.21708496
v 20.51917188 -0.13878101 11.21708496
v 20.51917188 -0.00000000 11.21708496
v 20.51917188 0.13878101 11.21708496
v 20.51917188 0.27756201 11.21708496
v 20.51967188 0.28849121 11.21648633
v 20.52115625 0.29920245 11.21471582
v 20.52354688 0.30949777 11.21184863
v 20.52677344 0.31922806 11.20799121
v 20.53071094 0.32824631 11.20328906
v 20.53525781 0.33652985 11.19784961
v 20.54032031 0.34404010 11.19178906
v 20.54582031 0.35076733 11.18520996
v 20.55282813 0.35774765 11.17683691
v 20.56022656 0.36363889 11.16798535
v 20.56793750 0.36846271 11.15876367
v 20.57588281 0.37224460 11.14925977
v 20.59221094 0.37675900 11.12973242
v 20.60049219 0.37752441 11.11982715
v 20.60878906 0.37730386 11.10990527
v 20.72375781 0.36740524 10.97240527
v 20.83873438 0.35750662 10.83490527
v 20.95370313 0.34760803 10.69740527
v 21.06867187 0.33770941 10.55990527
v 21.07546875 0.33678970 10.55178223
v 21.08220312 0.33519980 10.54372070
v 21.08886719 0.33293292 10.53575488
v 21.09541406 0.32998001 10.52792285
v 21.10804687 0.32196091 10.51281641
v 21.11403906 0.31687009 10.50564941
v 21.11975000 0.31104227 10.49882031
v 21.12522656 0.30431705 10.49226758
v 21.13027344 0.29681290 10.48623242
v 21.13480469 0.28853973 10.48081543
v 21.13871875 0.27953625 10.47613477
v 21.14192969 0.26982541 10.47229590
v 21.14431250 0.25955347 10.46944336
v 21.14578906 0.24886865 10.46768164
v 21.14628125 0.23796753 10.46708496
v 21.14628125 0.11898376 10.46708496
v 21.14628125 -0.00000000 10.46708496
v 21.14628125 -0.11898376 10.46708496
v 17.04266406 5.67574268 11.02961133
v 17.19013281 5.69363184 10.84209473
v 17.33760156 5.71150928 10.65457715
v 17.33300781 5.26391016 11.02958887
v 17.48122656 5.27930029 10.84206543
v 17.62944531 5.29467187 10.65454199
v 17.62334375 4.85207715 11.02956738
v 17.77232031 4.86496875 10.84203711
v 17.92128906 4.87783398 10.65450684
v 17.89758594 4.43943018 11.04946094
v 18.06728906 4.46605322 10.82444922
v 18.23701563 4.49267383 10.59946094
v 18.25360937 4.49747510 10.57563672
v 18.26092969 4.50152832 10.56351172
v 18.26740625 4.50679297 10.55137598
v 18.27291406 4.51337500 10.53930664
v 18.27723437 4.52128418 10.52755469
v 18.28018750 4.53050488 10.51633691
v 18.28164063 4.54093457 10.50591211
v 18.28150000 4.55245752 10.49647266
v 18.27977344 4.56477393 10.48827344
v 18.27654688 4.57760205 10.48143945
v 18.27197656 4.59068652 10.47600293
v 18.26626562 4.60373389 10.47195215
v 18.25957813 4.61664990 10.46918066
v 18.24390625 4.64163477 10.46708496
v 18.12706250 4.80912305 10.46708496
v 18.01021094 4.97661133 10.46708496
v 17.89335937 5.14409961 10.46708496
v 17.77651562 5.31158789 10.46708496
v 17.65966406 5.47907666 10.46708496
v 17.54282031 5.64656494 10.46708496
v 17.42596875 5.81405371 10.46708496
v 17.30911719 5.98154199 10.46708496
v 17.30267188 5.99045801 10.46735059
v 17.29595313 5.99914160 10.46812109
v 17.28185156 6.01577295 10.47104395
v 17.26704687 6.03138379 10.47560840
v 17.25171875 6.04596289 10.48162305
v 17.23603906 6.05947070 10.48891699
v 17.22008594 6.07193359 10.49737988
v 17.20395313 6.08333838 10.50691504
v 17.18771094 6.09366650 10.51744531
v 17.17111719 6.10305664 10.52914160
v 17.15457031 6.11125488 10.54175586
v 17.13814062 6.11820264 10.55524707
v 17.12191406 6.12382080 10.56958008
v 17.10596094 6.12801465 10.58474707
v 17.09043750 6.13064307 10.60068848
v 17.07549219 6.13154199 10.61736816
v 17.06829688 6.13127930 10.62596191
v 17.06132812 6.13050293 10.63470996
v 16.88679688 6.10388135 10.85970801
v 16.71227344 6.07725977 11.08470996
v 16.69530469 6.07250439 11.10837305
v 16.68777344 6.06849170 11.12043262
v 16.68107812 6.06327393 11.13251953
v 16.67534375 6.05673975 11.14456445
v 16.67080469 6.04887158 11.15631641
v 16.66764844 6.03967725 11.16755859
v 16.66602344 6.02925342 11.17802734
v 16.66603125 6.01769971 11.18753223
v 16.66767969 6.00533496 11.19579199
v 16.67088281 5.99245166 11.20267480
v 16.67548437 5.97931543 11.20814355
v 16.68125000 5.96623096 11.21220996
v 16.68801562 5.95329102 11.21498828
v 16.70389844 5.92829883 11.21708496
v 16.82238281 5.76081006 11.21708496
v 16.94087500 5.59332178 11.21708496
v 17.05935937 5.42583350 11.21708496
v 17.17784375 5.25834473 11.21708496
v 17.29632812 5.09085645 11.21708496
v 17.41481250 4.92336816 11.21708496
v 17.53330469 4.75587988 11.21708496
v 17.65178906 4.58839111 11.21708496
v 17.65828906 4.57951221 11.21682227
v 17.66505469 4.57086035 11.21605762
v 17.67922656 4.55427344 11.21315332
v 17.69406250 4.53868457 11.20861035
v 17.70940625 4.52410693 11.20261230
v 17.72508594 4.51058105 11.19532520
v 17.74102344 4.49808691 11.18685645
v 17.75712500 4.48664111 11.17729883
v 17.77332812 4.47626709 11.16672559
v 17.78971094 4.46690527 11.15506934
v 17.80603906 4.45871924 11.14248535
v 17.82223438 4.45177197 11.12901367
v 17.83821094 4.44614551 11.11468848
v 17.85389062 4.44193848 11.09951465
v 17.86912500 4.43929785 11.08355176
v 17.88375781 4.43839160 11.06684082
v 17.89078906 4.43865283 11.05822852
v 19.55145312 2.11697168 11.02960547
v 19.70536719 2.11326855 10.84208691
v 19.85927344 2.10949292 10.65457031
v 19.85674219 1.68394421 11.02958301
v 20.01143750 1.67761426 10.84205664
v 20.16614063 1.67120459 10.65453320
v 20.16203125 1.25091663 11.02955957
v 20.31751562 1.24195996 10.84202637
v 20.47300000 1.23291614 10.65449609
v 20.20815625 0.97480414 11.21708496
v 20.21985937 0.95916846 11.21626855
v 20.23226563 0.94423901 11.21393848
v 20.24521094 0.93006323 11.21025781
v 20.25856250 0.91666193 11.20535840
v 20.27221094 0.90407251 11.19936133
v 20.28609375 0.89228772 11.19234961
v 20.30013281 0.88132416 11.18439453
v 20.31428125 0.87120013 11.17555762
v 20.32844531 0.86195862 11.16590820
v 20.34259375 0.85360797 11.15546777
v 20.35668750 0.84618677 11.14427051
v 20.37066406 0.83974396 11.13234473
v 20.38447656 0.83433588 11.11970312
v 20.39803125 0.83004291 11.10638184
v 20.41125781 0.82695593 11.09240137
v 20.42403906 0.82518719 11.07779785
v 20.61309375 0.80907849 10.85282520
v 20.80207813 0.79296600 10.62779785
v 20.81300000 0.79260907 10.61428516
v 20.82335156 0.79351813 10.60036133
v 20.83300781 0.79582007 10.58609082
v 20.84178906 0.79965125 10.57158203
v 20.84951562 0.80519257 10.55688672
v 20.85588281 0.81253949 10.54232812
v 20.86060156 0.82175909 10.52819434
v 20.86341406 0.83279462 10.51487695
v 20.86415625 0.84471759 10.50340918
v 20.86296875 0.85780969 10.49333789
v 20.85995313 0.87171405 10.48488281
v 20.85525781 0.88608093 10.47813379
v 20.84917187 0.90049890 10.47311035
v 20.84189063 0.91482916 10.46967480
v 20.83363281 0.92889252 10.46771094
v 20.82457812 0.94258295 10.46708496
v 20.69769531 1.12445264 10.46708496
v 20.57081250 1.30632251 10.46708496
v 20.44392188 1.48819226 10.46708496
v 20.31703906 1.67006213 10.46708496
v 20.19015625 1.85193213 10.46708496
v 20.06327344 2.03380200 10.46708496
v 19.93639063 2.21567212 10.46708496
v 19.80950781 2.39754199 10.46708496
v 19.80313281 2.40637964 10.46734570
v 19.79650000 2.41500049 10.46810449
v 19.78261719 2.43154907 10.47099121
v 19.76807812 2.44712744 10.47551758
v 19.75304687 2.46171313 10.48150488
v 19.73768750 2.47526050 10.48878906
v 19.72207031 2.48778345 10.49726660
v 19.70628906 2.49926074 10.50684277
v 19.69041406 2.50966626 10.51744531
v 19.67442188 2.51902710 10.52910059
v 19.65848438 2.52721411 10.54168555
v 19.64268750 2.53416357 10.55516113
v 19.62711719 2.53979126 10.56949219
v 19.61185156 2.54399805 10.58467187
v 19.59703906 2.54663745 10.60063672
v 19.58284375 2.54754175 10.61734375
v 19.57603125 2.54727979 10.62595117
v 19.56946094 2.54650293 10.63470996
v 19.40542187 2.51988403 10.85968652
v 19.24144531 2.49325952 11.08470996
v 19.22531250 2.48837451 11.10882422
v 19.21827344 2.48424097 11.12108691
v 19.21211719 2.47887158 11.13334375
v 19.20697656 2.47216650 11.14550586
v 19.20307813 2.46412720 11.15731348
v 19.20057031 2.45478564 11.16853809
v 19.19957812 2.44426221 11.17892090
v 19.20016406 2.43273169 11.18824512
v 19.20229687 2.42045996 11.19631152
v 19.20586719 2.40772095 11.20301758
v 19.21071875 2.39475586 11.20834375
v 19.21664063 2.38183887 11.21231152
v 19.22348438 2.36905396 11.21502832
v 19.23932813 2.34429858 11.21708496
v 19.36042969 2.17311182 11.21708496
v 19.48153125 2.00192505 11.21708496
v 19.60264062 1.83073828 11.21708496
v 19.72374219 1.65955139 11.21708496
v 19.84484375 1.48836462 11.21708496
v 19.96594531 1.31717786 11.21708496
v 20.08704687 1.14599097 11.21708496
v 18.29414844 3.90048535 11.02960937
v 18.44482813 3.90760181 10.84209180
v 18.59550781 3.91467627 10.65457422
v 18.58888281 3.48242358 11.02958691
v 18.74032031 3.48700366 10.84206250
v 18.89176563 3.49153467 10.65453906
v 18.88361719 3.06436182 11.02956543
v 19.03582031 3.06640552 10.84203418
v 19.18802344 3.06839307 10.65450293
v 19.16134375 2.64743042 11.04946094
v 19.32577344 2.67405469 10.82443848
v 19.49026562 2.70067358 10.59946094
v 19.50644531 2.70553857 10.57541602
v 19.51352344 2.70965015 10.56319336
v 19.51973437 2.71498853 10.55097559
v 19.52495312 2.72165283 10.53885059
v 19.52896094 2.72964429 10.52707227
v 19.53160156 2.73893506 10.51586523
v 19.53275000 2.74941260 10.50548145
v 19.53232812 2.76092432 10.49612891
v 19.53036719 2.77319629 10.48802246
v 19.52696875 2.78595532 10.48127344
v 19.52226562 2.79895752 10.47590527
v 19.51648438 2.81192407 10.47190332
v 19.50975781 2.82476514 10.46916113
v 19.49410156 2.84963452 10.46708496
v 19.37725781 3.01712305 10.46708496
v 19.26040625 3.18461133 10.46708496
v 19.14355469 3.35209961 10.46708496
v 19.02671094 3.51958813 10.46708496
v 18.90985937 3.68707642 10.46708496
v 18.79300781 3.85456494 10.46708496
v 18.67616406 4.02205347 10.46708496
v 18.55931250 4.18954199 10.46708496
v 18.55289844 4.19841895 10.46734863
v 18.54622656 4.20707080 10.46811328
v 18.53223438 4.22366113 10.47101758
v 18.51756250 4.23925586 10.47556348
v 18.50238281 4.25383838 10.48156445
v 18.48685938 4.26736572 10.48885352
v 18.47107812 4.27985889 10.49732324
v 18.45511719 4.29129980 10.50687891
v 18.43905469 4.30166650 10.51744531
v 18.42276563 4.31104199 10.52912012
v 18.40652344 4.31923437 10.54172070
v 18.39041406 4.32618262 10.55520410
v 18.37451563 4.33180566 10.56953516
v 18.35890625 4.33600635 10.58470801
v 18.34373438 4.33864014 10.60066211
v 18.32916406 4.33954199 10.61735547
v 18.32216406 4.33927930 10.62595605
v 18.31539062 4.33850293 10.63470996
v 18.14610938 4.31188281 10.85969727
v 17.97685938 4.28525977 11.08470996
v 17.96029688 4.28043994 11.10859766
v 17.95301562 4.27636670 11.12075879
v 17.94658594 4.27107324 11.13293164
v 17.94114844 4.26445313 11.14503711
v 17.93692187 4.25649805 11.15681934
v 17.93409375 4.24722803 11.16805371
v 17.93278906 4.23675146 11.17848242
v 17.93308594 4.22520801 11.18789551
v 17.93498437 4.21288916 11.19605762
v 17.93837500 4.20007813 11.20285059
v 17.94310156 4.18702881 11.20824609
v 17.94894531 4.17402979 11.21226270
v 17.95575000 4.16116943 11.21500879
v 17.97160937 4.13629883 11.21708496
v 18.09010156 3.96881030 11.21708496
v 18.20858594 3.80132178 11.21708496
v 18.32707031 3.63383325 11.21708496
v 18.44555469 3.46634497 11.21708496
v 18.56404687 3.29885645 11.21708496
v 18.68253125 3.13136816 11.21708496
v 18.80101563 2.96387964 11.21708496
v 18.91950000 2.79639136 11.21708496
v 18.92596875 2.78755225 11.21682422
v 18.93268750 2.77893237 11.21606543
v 18.94674219 2.76238818 11.21318066
v 18.96144531 2.74681592 11.20865625
v 18.97664063 2.73223462 11.20267285
v 18.99215625 2.71868872 11.19539062
v 19.00792188 2.70616382 11.18691406
v 19.02384375 2.69468115 11.17733496
v 19.03985156 2.68426685 11.16672559
v 19.05592969 2.67492017 11.15508984
v 19.07194531 2.66673975 11.14252051
v 19.08782031 2.65979102 11.12905664
v 19.10346094 2.65415967 11.11473145
v 19.11878906 2.64994678 11.09955078
v 19.13366406 2.64730054 11.08357617
v 19.14792188 2.64639136 11.06685254
v 19.15475000 2.64665283 11.05823340
v 15.17991406 6.38796533 11.12325684
v 15.21578516 6.40205859 11.02941113
v 15.25165625 6.41615137 10.93556543
v 15.05826563 6.38943701 11.12330664
v 15.09061719 6.40381787 11.02947070
v 15.12296484 6.41819873 10.93563477
v 15.15531641 6.43258008 10.84179883
v 15.18766797 6.44696094 10.74796289
v 15.22001953 6.46134229 10.65412695
v 15.25236719 6.47572314 10.56029102
v 14.93661328 6.39090820 11.12335547
v 14.96544531 6.40557764 11.02952930
v 14.99427344 6.42024658 10.93570312
v 15.02310156 6.43491553 10.84187695
v 15.05193359 6.44958496 10.74805078
v 15.08076172 6.46425391 10.65422461
v 15.10958984 6.47892334 10.56039844
v 14.81496484 6.39237988 11.12340527
v 14.84027344 6.40733691 11.02958887
v 14.86558203 6.42229395 10.93577148
v 14.89089063 6.43725146 10.84195508
v 14.91619922 6.45220850 10.74813867
v 14.94150391 6.46716602 10.65432227
v 14.96681250 6.48212305 10.56050488
v 14.69331641 6.39385107 11.12345410
v 14.71510156 6.40909619 11.02964746
v 14.73689062 6.42434180 10.93584082
v 14.75867578 6.43958691 10.84203320
v 14.78046484 6.45483252 10.74822656
v 14.80225000 6.47007764 10.65441992
v 14.82403516 6.48532324 10.56061230
v 14.57166797 6.39532227 11.12350391
v 14.58993359 6.41085596 11.02970605
v 14.60819531 6.42638916 10.93590918
v 14.62646094 6.44192285 10.84211133
v 14.64472656 6.45745605 10.74831445
v 14.66299219 6.47298975 10.65451660
v 14.68125781 6.48852295 10.56071973
v 14.45001563 6.39679395 11.12355273
v 14.46476172 6.41261523 11.02976562
v 14.47950391 6.42843701 10.93597754
v 14.49425000 6.44425879 10.84219043
v 14.50899219 6.46008008 10.74840234
v 14.52373828 6.47590186 10.65461426
v 14.53848047 6.49172314 10.56082715
v 14.49568359 6.50891699 10.46708496
v 14.58318359 6.50681836 10.46708496
v 14.67068359 6.50472021 10.46708496
v 14.75818359 6.50262256 10.46708496
v 14.84568359 6.50052490 10.46708496
v 14.93318359 6.49842725 10.46708496
v 15.02068359 6.49633008 10.46708496
v 15.10818359 6.49423291 10.46708496
v 15.19568359 6.49213574 10.46708496
v 15.21533984 6.49134766 10.46903613
v 15.23419922 6.48996094 10.47480078
v 15.25152344 6.48803809 10.48412793
v 15.26664844 6.48565967 10.49663086
v 15.27900391 6.48292578 10.51178711
v 15.28815625 6.47993896 10.52902441
v 15.29378516 6.47681201 10.54768848
v 15.29568359 6.47365771 10.56708496
v 15.29568359 6.46267187 10.63580078
v 15.29568359 6.45174023 10.70452637
v 15.29568359 6.44086719 10.77325977
v 15.29568359 6.43005518 10.84200293
v 15.29568359 6.41930811 10.91075684
v 15.29568359 6.40862988 10.97952148
v 15.29568359 6.39802490 11.04829785
v 15.29568359 6.38749854 11.11708496
v 15.29378516 6.38456982 11.13646777
v 15.28816016 6.38179785 11.15513672
v 15.27899609 6.37928125 11.17238965
v 15.26662891 6.37711377 11.18756152
v 15.25148438 6.37537500 11.20006836
v 15.23415234 6.37413818 11.20938867
v 15.21530469 6.37345410 11.21514160
v 15.19568359 6.37335547 11.21708496
v 15.10818359 6.37423633 11.21708496
v 15.02068359 6.37511768 11.21708496
v 14.93318359 6.37599854 11.21708496
v 14.84568359 6.37688037 11.21708496
v 14.75818359 6.37776172 11.21708496
v 14.67068359 6.37864307 11.21708496
v 14.58318359 6.37952490 11.21708496
v 14.49568359 6.38040674 11.21708496
v 14.47601172 6.38093604 11.21513184
v 14.45713672 6.38210742 11.20935742
v 14.43980078 6.38387646 11.20001465
v 14.42467187 6.38617187 11.18749414
v 14.41232813 6.38889893 11.17232812
v 14.40318750 6.39195361 11.15509473
v 14.39757422 6.39521729 11.13645020
v 14.39568359 6.39856592 11.11708496
v 14.39568359 6.41039502 11.04832129
v 14.39568359 6.42225049 10.97956152
v 14.39568359 6.43413037 10.91080664
v 14.39568359 6.44603320 10.84205469
v 14.39568359 6.45795801 10.77330762
v 14.39568359 6.46990332 10.70456348
v 14.39568359 6.48186768 10.63582324
v 14.39568359 6.49385059 10.56708496
v 14.39757031 6.49718164 10.54774805
v 14.40317578 6.50030615 10.52910938
v 14.41231250 6.50310254 10.51186523
v 14.42466406 6.50545996 10.49668262
v 14.43981250 6.50728516 10.48414941
v 14.45716016 6.50849854 10.47480371
v 14.47603516 6.50904932 10.46903418
v 15.17991406 -6.38796533 11.12325684
v 15.21578516 -6.40205859 11.02941113
v 15.25165625 -6.41615137 10.93556543
v 15.05826563 -6.38943701 11.12330664
v 15.09061719 -6.40381787 11.02947070
v 15.12296484 -6.41819873 10.93563477
v 15.15531641 -6.43258008 10.84179883
v 15.18766797 -6.44696094 10.74796289
v 15.22001953 -6.46134229 10.65412695
v 15.25236719 -6.47572314 10.56029102
v 14.93661328 -6.39090820 11.12335547
v 14.96544531 -6.40557764 11.02952930
v 14.99427344 -6.42024658 10.93570312
v 15.02310156 -6.43491553 10.84187695
v 15.05193359 -6.44958496 10.74805078
v 15.08076172 -6.46425391 10.65422461
v 15.10958984 -6.47892334 10.56039844
v 14.81496484 -6.39237988 11.12340527
v 14.84027344 -6.40733691 11.02958887
v 14.86558203 -6.42229395 10.93577148
v 14.89089063 -6.43725146 10.84195508
v 14.91619922 -6.45220850 10.74813867
v 14.94150391 -6.46716602 10.65432227
v 14.96681250 -6.48212305 10.56050488
v 14.69331641 -6.39385107 11.12345410
v 14.71510156 -6.40909619 11.02964746
v 14.73689062 -6.42434180 10.93584082
v 14.75867578 -6.43958691 10.84203320
v 14.78046484 -6.45483252 10.74822656
v 14.80225000 -6.47007764 10.65441992
v 14.82403516 -6.48532324 10.56061230
v 14.57166797 -6.39532227 11.12350391
v 14.58993359 -6.41085596 11.02970605
v 14.60819531 -6.42638916 10.93590918
v 14.62646094 -6.44192285 10.84211133
v 14.64472656 -6.45745605 10.74831445
v 14.66299219 -6.47298975 10.65451660
v 14.68125781 -6.48852295 10.56071973
v 14.45001563 -6.39679395 11.12355273
v 14.46476172 -6.41261523 11.02976562
v 14.47950391 -6.42843701 10.93597754
v 14.49425000 -6.44425879 10.84219043
v 14.50899219 -6.46008008 10.74840234
v 14.52373828 -6.47590186 10.65461426
v 14.53848047 -6.49172314 10.56082715
v 14.49568359 -6.50891699 10.46708496
v 14.58318359 -6.50681836 10.46708496
v 14.67068359 -6.50472021 10.46708496
v 14.75818359 -6.50262256 10.46708496
v 14.84568359 -6.50052490 10.46708496
v 14.93318359 -6.49842725 10.46708496
v 15.02068359 -6.49633008 10.46708496
v 15.10818359 -6.49423291 10.46708496
v 15.19568359 -6.49213574 10.46708496
v 15.21533984 -6.49134766 10.46903613
v 15.23419922 -6.48996094 10.47480078
v 15.25152344 -6.48803809 10.48412793
v 15.26664844 -6.48565967 10.49663086
v 15.27900391 -6.48292578 10.51178711
v 15.28815625 -6.47993896 10.52902441
v 15.29378516 -6.47681201 10.54768848
v 15.29568359 -6.47365771 10.56708496
v 15.29568359 -6.46267187 10.63580078
v 15.29568359 -6.45174023 10.70452637
v 15.29568359 -6.44086719 10.77325977
v 15.29568359 -6.43005518 10.84200293
v 15.29568359 -6.41930811 10.91075684
v 15.29568359 -6.40862988 10.97952148
v 15.29568359 -6.39802490 11.04829785
v 15.29568359 -6.38749854 11.11708496
v 15.29378516 -6.38456982 11.13646777
v 15.28816016 -6.38179785 11.15513672
v 15.27899609 -6.37928125 11.17238965
v 15.26662891 -6.37711377 11.18756152
v 15.25148438 -6.37537500 11.20006836
v 15.23415234 -6.37413818 11.20938867
v 15.21530469 -6.37345410 11.21514160
v 15.19568359 -6.37335547 11.21708496
v 15.10818359 -6.37423633 11.21708496
v 15.02068359 -6.37511768 11.21708496
v 14.93318359 -6.37599854 11.21708496
v 14.84568359 -6.37688037 11.21708496
v 14.75818359 -6.37776172 11.21708496
v 14.67068359 -6.37864307 11.21708496
v 14.58318359 -6.37952490 11.21708496
v 14.49568359 -6.38040674 11.21708496
v 14.47601172 -6.38093604 11.21513184
v 14.45713672 -6.38210742 11.20935742
v 14.43980078 -6.38387646 11.20001465
v 14.42467187 -6.38617187 11.18749414
v 14.41232813 -6.38889893 11.17232812
v 14.40318750 -6.39195361 11.15509473
v 14.39757422 -6.39521729 11.13645020
v 14.39568359 -6.39856592 11.11708496
v 14.39568359 -6.41039502 11.04832129
v 14.39568359 -6.42225049 10.97956152
v 14.39568359 -6.43413037 10.91080664
v 14.39568359 -6.44603320 10.84205469
v 14.39568359 -6.45795801 10.77330762
v 14.39568359 -6.46990332 10.70456348
v 14.39568359 -6.48186768 10.63582324
v 14.39568359 -6.49385059 10.56708496
v 14.39757031 -6.49718164 10.54774805
v 14.40317578 -6.50030615 10.52910938
v 14.41231250 -6.50310254 10.51186523
v 14.42466406 -6.50545996 10.49668262
v 14.43981250 -6.50728516 10.48414941
v 14.45716016 -6.50849854 10.47480371
v 14.47603516 -6.50904932 10.46903418
v 16.03142187 6.37761963 11.12325293
v 16.09189063 6.38968408 11.02942773
v 16.15235937 6.40174854 10.93560254
v 16.21282813 6.41381299 10.84177832
v 16.27329687 6.42587744 10.74795313
v 16.33376563 6.43794189 10.65412891
v 16.39423437 6.45000586 10.56030371
v 15.93344531 6.37880420 11.12329199
v 15.99107812 6.39110010 11.02947559
v 16.04871094 6.40339648 10.93565820
v 16.10635156 6.41569287 10.84184082
v 16.16398437 6.42798926 10.74802441
v 16.22161719 6.44028516 10.65420703
v 16.27925781 6.45258154 10.56039063
v 15.83546484 6.37998828 11.12333203
v 15.89026562 6.39251660 11.02952246
v 15.94507031 6.40504443 10.93571387
v 15.99986719 6.41757275 10.84190430
v 16.05467188 6.43010059 10.74809473
v 16.10947656 6.44262891 10.65428613
v 16.16427344 6.45515723 10.56047656
v 15.73748828 6.38117285 11.12337109
v 15.78945703 6.39393262 11.02957031
v 15.84142187 6.40669287 10.93576855
v 15.89339063 6.41945264 10.84196680
v 15.94535938 6.43221240 10.74816602
v 15.99732812 6.44497266 10.65436426
v 16.04929687 6.45773242 10.56056250
v 15.63951172 6.38235693 11.12341113
v 15.68864453 6.39534912 11.02961719
v 15.73777734 6.40834082 10.93582422
v 15.78691406 6.42133252 10.84203027
v 15.83604687 6.43432422 10.74823633
v 15.88517969 6.44731592 10.65444336
v 15.93431250 6.46030811 10.56064941
v 15.63413281 6.40998877 10.93587891
v 15.68043359 6.42321240 10.84209277
v 15.72673437 6.43643604 10.74830762
v 15.77303516 6.44965967 10.65452148
v 15.81933594 6.46288330 10.56073535
v 15.61742187 6.43854785 10.74837793
v 15.66088672 6.45200342 10.65459961
v 15.70435547 6.46545898 10.56082227
v 16.51742969 6.44899658 10.54782715
v 16.48669531 6.44411621 10.58725195
v 16.45596094 6.43923047 10.62667676
v 16.42522656 6.43433984 10.66610059
v 16.39449219 6.42944336 10.70552441
v 16.36375781 6.42454102 10.74494727
v 16.33302344 6.41963281 10.78437012
v 16.30228906 6.41471875 10.82379199
v 16.27156250 6.40979834 10.86321387
v 16.24082813 6.40487158 10.90263574
v 16.21009375 6.39993799 10.94205664
v 16.17935938 6.39499707 10.98147656
v 16.14863281 6.39004932 11.02089648
v 16.11789844 6.38509375 11.06031543
v 16.08717187 6.38013037 11.09973340
v 16.05643750 6.37515918 11.13915137
v 16.02571094 6.37017969 11.17856836
v 16.01825781 6.36911133 11.18708789
v 16.00987500 6.36817139 11.19471680
v 16.00067969 6.36737256 11.20135547
v 15.99078125 6.36672559 11.20691406
v 15.98031250 6.36623828 11.21131836
v 15.96940625 6.36591797 11.21450781
v 15.95819531 6.36577002 11.21643848
v 15.94684375 6.36579688 11.21708496
v 15.88405469 6.36642822 11.21708496
v 15.82126172 6.36705957 11.21708496
v 15.75847266 6.36769141 11.21708496
v 15.69568359 6.36832324 11.21708496
v 15.67605859 6.36879639 11.21514063
v 15.65721484 6.36980566 11.20938965
v 15.63989062 6.37131445 11.20007520
v 15.62475391 6.37326660 11.18757910
v 15.61238281 6.37558545 11.17241602
v 15.60321875 6.37818359 11.15516602
v 15.59758203 6.38096191 11.13649023
v 15.59568359 6.38381250 11.11708496
v 15.59568359 6.39390479 11.04829102
v 15.59568359 6.40409277 10.97951074
v 15.59568359 6.41437012 10.91074316
v 15.59568359 6.42473193 10.84198828
v 15.59568359 6.43517334 10.77324609
v 15.59568359 6.44568994 10.70451465
v 15.59568359 6.45627686 10.63579492
v 15.59568359 6.46693115 10.56708496
v 15.59757813 6.46990381 10.54771484
v 15.60319922 6.47268408 10.52905176
v 15.61235547 6.47516309 10.51179785
v 15.62472656 6.47724219 10.49662012
v 15.63987500 6.47883691 10.48410547
v 15.65721484 6.47987842 10.47478125
v 15.67606641 6.48032422 10.46902832
v 15.69568359 6.48015674 10.46708496
v 15.74457813 6.47898535 10.46708496
v 15.79347266 6.47781445 10.46708496
v 15.84236719 6.47664355 10.46708496
v 15.89126563 6.47547266 10.46708496
v 15.94015625 6.47430176 10.46708496
v 15.98905469 6.47313086 10.46708496
v 16.03794531 6.47195996 10.46708496
v 16.08684375 6.47078955 10.46708496
v 16.13573437 6.46961865 10.46708496
v 16.18463281 6.46844824 10.46708496
v 16.23352344 6.46727734 10.46708496
v 16.28242188 6.46610693 10.46708496
v 16.33131250 6.46493652 10.46708496
v 16.38021094 6.46376611 10.46708496
v 16.42910156 6.46259570 10.46708496
v 16.47800000 6.46142578 10.46708496
v 16.48498437 6.46118799 10.46757617
v 16.49182813 6.46081494 10.46903516
v 16.49839062 6.46031445 10.47143262
v 16.50454687 6.45969727 10.47471680
v 16.51517969 6.45816699 10.48365625
v 16.52292969 6.45634668 10.49514355
v 16.52553906 6.45536621 10.50159863
v 16.52723437 6.45436670 10.50835156
v 16.52773438 6.45238477 10.52223340
v 16.52439062 6.45054834 10.53573828
v 16.52133594 6.44972852 10.54202246
v 16.03142187 -6.37761963 11.12325293
v 16.09189063 -6.38968408 11.02942773
v 16.15235937 -6.40174854 10.93560254
v 16.21282813 -6.41381299 10.84177832
v 16.27329687 -6.42587744 10.74795313
v 16.33376563 -6.43794189 10.65412891
v 16.39423437 -6.45000586 10.56030371
v 15.93344531 -6.37880420 11.12329199
v 15.99107812 -6.39110010 11.02947559
v 16.04871094 -6.40339648 10.93565820
v 16.10635156 -6.41569287 10.84184082
v 16.16398437 -6.42798926 10.74802441
v 16.22161719 -6.44028516 10.65420703
v 16.27925781 -6.45258154 10.56039063
v 15.83546484 -6.37998828 11.12333203
v 15.89026562 -6.39251660 11.02952246
v 15.94507031 -6.40504443 10.93571387
v 15.99986719 -6.41757275 10.84190430
v 16.05467188 -6.43010059 10.74809473
v 16.10947656 -6.44262891 10.65428613
v 16.16427344 -6.45515723 10.56047656
v 15.73748828 -6.38117285 11.12337109
v 15.78945703 -6.39393262 11.02957031
v 15.84142187 -6.40669287 10.93576855
v 15.89339063 -6.41945264 10.84196680
v 15.94535938 -6.43221240 10.74816602
v 15.99732812 -6.44497266 10.65436426
v 16.04929687 -6.45773242 10.56056250
v 15.63951172 -6.38235693 11.12341113
v 15.68864453 -6.39534912 11.02961719
v 15.73777734 -6.40834082 10.93582422
v 15.78691406 -6.42133252 10.84203027
v 15.83604687 -6.43432422 10.74823633
v 15.88517969 -6.44731592 10.65444336
v 15.93431250 -6.46030811 10.56064941
v 15.63413281 -6.40998877 10.93587891
v 15.68043359 -6.42321240 10.84209277
v 15.72673437 -6.43643604 10.74830762
v 15.77303516 -6.44965967 10.65452148
v 15.81933594 -6.46288330 10.56073535
v 15.61742187 -6.43854785 10.74837793
v 15.66088672 -6.45200342 10.65459961
v 15.70435547 -6.46545898 10.56082227
v 16.51742969 -6.44899658 10.54782715
v 16.48669531 -6.44411621 10.58725195
v 16.45596094 -6.43923047 10.62667676
v 16.42522656 -6.43433984 10.66610059
v 16.39449219 -6.42944336 10.70552441
v 16.36375781 -6.42454102 10.74494727
v 16.33302344 -6.41963281 10.78437012
v 16.30228906 -6.41471875 10.82379199
v 16.27156250 -6.40979834 10.86321387
v 16.24082813 -6.40487158 10.90263574
v 16.21009375 -6.39993799 10.94205664
v 16.17935938 -6.39499707 10.98147656
v 16.14863281 -6.39004932 11.02089648
v 16.11789844 -6.38509375 11.06031543
v 16.08717187 -6.38013037 11.09973340
v 16.05643750 -6.37515918 11.13915137
v 16.02571094 -6.37017969 11.17856836
v 16.01825781 -6.36911133 11.18708789
v 16.00987500 -6.36817139 11.19471680
v 16.00067969 -6.36737256 11.20135547
v 15.99078125 -6.36672559 11.20691406
v 15.98031250 -6.36623828 11.21131836
v 15.96940625 -6.36591797 11.21450781
v 15.95819531 -6.36577002 11.21643848
v 15.94684375 -6.36579688 11.21708496
v 15.88405469 -6.36642822 11.21708496
v 15.82126172 -6.36705957 11.21708496
v 15.75847266 -6.36769141 11.21708496
v 15.69568359 -6.36832324 11.21708496
v 15.67605859 -6.36879639 11.21514063
v 15.65721484 -6.36980566 11.20938965
v 15.63989062 -6.37131445 11.20007520
v 15.62475391 -6.37326660 11.18757910
v 15.61238281 -6.37558545 11.17241602
v 15.60321875 -6.37818359 11.15516602
v 15.59758203 -6.38096191 11.13649023
v 15.59568359 -6.38381250 11.11708496
v 15.59568359 -6.39390479 11.04829102
v 15.59568359 -6.40409277 10.97951074
v 15.59568359 -6.41437012 10.91074316
v 15.59568359 -6.42473193 10.84198828
v 15.59568359 -6.43517334 10.77324609
v 15.59568359 -6.44568994 10.70451465
v 15.59568359 -6.45627686 10.63579492
v 15.59568359 -6.46693115 10.56708496
v 15.59757813 -6.46990381 10.54771484
v 15.60319922 -6.47268408 10.52905176
v 15.61235547 -6.47516309 10.51179785
v 15.62472656 -6.47724219 10.49662012
v 15.63987500 -6.47883691 10.48410547
v 15.65721484 -6.47987842 10.47478125
v 15.67606641 -6.48032422 10.46902832
v 15.69568359 -6.48015674 10.46708496
v 15.74457813 -6.47898535 10.46708496
v 15.79347266 -6.47781445 10.46708496
v 15.84236719 -6.47664355 10.46708496
v 15.89126563 -6.47547266 10.46708496
v 15.94015625 -6.47430176 10.46708496
v 15.98905469 -6.47313086 10.46708496
v 16.03794531 -6.47195996 10.46708496
v 16.08684375 -6.47078955 10.46708496
v 16.13573437 -6.46961865 10.46708496
v 16.18463281 -6.46844824 10.46708496
v 16.23352344 -6.46727734 10.46708496
v 16.28242188 -6.46610693 10.46708496
v 16.33131250 -6.46493652 10.46708496
v 16.38021094 -6.46376611 10.46708496
v 16.42910156 -6.46259570 10.46708496
v 16.47800000 -6.46142578 10.46708496
v 16.48498437 -6.46118799 10.46757617
v 16.49182813 -6.46081494 10.46903516
v 16.49839062 -6.46031445 10.47143262
v 16.50454687 -6.45969727 10.47471680
v 16.51517969 -6.45816699 10.48365625
v 16.52292969 -6.45634668 10.49514355
v 16.52553906 -6.45536621 10.50159863
v 16.52723437 -6.45436670 10.50835156
v 16.52773438 -6.45238477 10.52223340
v 16.52439062 -6.45054834 10.53573828
v 16.52133594 -6.44972852 10.54202246
f 5 2 1
f 5 1 4
f 6 3 2
f 6 2 5
f 8 5 4
f 8 4 7
f 9 6 5
f 9 5 8
f 60 68 59
f 62 68 61
f 68 60 61
f 69 58 59
f 55 1 54
f 56 1 55
f 58 69 57
f 56 57 1
f 1 53 54
f 62 63 68
f 68 66 67
f 68 65 66
f 70 1 69
f 57 69 1
f 71 1 70
f 64 65 68
f 69 59 68
f 53 1 2
f 3 6 31
f 2 3 53
f 1 71 4
f 63 64 68
f 4 71 72
f 52 53 3
f 50 3 49
f 48 3 47
f 50 51 3
f 48 49 3
f 33 44 45
f 46 3 45
f 42 43 34
f 43 44 33
f 3 46 47
f 51 52 3
f 34 38 39
f 39 40 34
f 36 37 34
f 37 38 34
f 34 40 41
f 35 36 34
f 41 42 34
f 34 43 33
f 3 33 45
f 32 33 3
f 3 31 32
f 30 31 6
f 4 73 7
f 7 74 75
f 73 74 7
f 75 76 85
f 76 78 79
f 76 79 80
f 81 82 76
f 81 76 80
f 77 78 76
f 82 83 76
f 76 84 85
f 75 85 86
f 75 87 7
f 87 75 86
f 88 7 87
f 93 7 92
f 90 7 89
f 88 89 7
f 91 92 7
f 91 7 90
f 83 84 76
f 10 7 93
f 9 16 27
f 9 8 11
f 29 6 9
f 11 8 7
f 22 23 26
f 28 29 9
f 27 28 9
f 25 26 24
f 27 18 26
f 24 26 23
f 30 6 29
f 16 9 15
f 14 15 9
f 14 9 13
f 12 13 9
f 16 17 27
f 22 26 21
f 21 26 20
f 26 19 20
f 19 26 18
f 27 17 18
f 11 12 9
f 11 7 10
f 73 4 72
f 98 95 94
f 98 94 97
f 99 96 95
f 99 95 98
f 101 98 97
f 101 97 100
f 102 99 98
f 102 98 101
f 171 180 170
f 173 179 172
f 179 171 172
f 180 169 170
f 166 94 165
f 167 94 166
f 169 94 168
f 167 168 94
f 94 164 165
f 173 174 179
f 179 177 178
f 179 176 177
f 181 94 180
f 169 180 94
f 182 94 181
f 175 176 179
f 180 171 179
f 164 94 95
f 96 99 142
f 95 96 164
f 94 182 97
f 174 175 179
f 97 182 183
f 163 164 96
f 160 96 159
f 158 159 96
f 160 161 96
f 162 96 161
f 144 155 156
f 156 157 144
f 153 154 145
f 154 155 144
f 96 157 158
f 162 163 96
f 145 149 150
f 150 151 145
f 147 148 145
f 148 149 145
f 145 151 152
f 146 147 145
f 152 153 145
f 145 154 144
f 157 96 144
f 143 144 96
f 96 142 143
f 141 142 99
f 100 97 184
f 186 100 185
f 100 184 185
f 186 103 112
f 186 115 100
f 104 105 103
f 106 103 105
f 107 108 103
f 107 103 106
f 103 108 109
f 103 110 111
f 103 111 112
f 113 114 186
f 113 186 112
f 186 114 115
f 116 117 100
f 117 118 100
f 120 100 119
f 100 118 119
f 116 100 115
f 109 110 103
f 101 100 120
f 132 133 137
f 127 138 102
f 140 99 102
f 102 101 120
f 133 134 137
f 139 140 102
f 138 139 102
f 136 137 135
f 138 129 137
f 135 137 134
f 141 99 140
f 126 102 125
f 124 125 102
f 124 102 123
f 122 123 102
f 126 127 102
f 132 137 131
f 131 137 130
f 137 129 130
f 129 138 128
f 138 127 128
f 121 122 102
f 102 120 121
f 184 97 183
f 191 188 187
f 191 187 190
f 192 189 188
f 192 188 191
f 194 191 190
f 194 190 193
f 195 192 191
f 195 191 194
f 246 254 245
f 248 254 247
f 254 246 247
f 255 244 245
f 241 187 240
f 242 187 241
f 244 255 243
f 242 243 187
f 187 239 240
f 248 249 254
f 254 252 253
f 255 187 243
f 257 187 256
f 187 255 256
f 257 190 187
f 254 251 252
f 251 254 250
f 187 188 239
f 217 189 192
f 188 189 239
f 255 245 254
f 249 250 254
f 238 239 189
f 189 235 236
f 233 234 189
f 234 235 189
f 237 189 236
f 219 230 231
f 232 189 231
f 228 229 220
f 229 230 219
f 189 232 233
f 237 238 189
f 220 224 225
f 225 226 220
f 222 223 220
f 223 224 220
f 220 226 227
f 221 222 220
f 227 228 220
f 220 229 219
f 189 219 231
f 218 219 189
f 189 217 218
f 216 217 192
f 257 258 190
f 259 193 190
f 261 262 271
f 260 193 259
f 264 262 263
f 193 260 261
f 264 265 262
f 266 262 265
f 267 268 262
f 267 262 266
f 262 268 269
f 258 259 190
f 262 270 271
f 261 271 272
f 261 273 193
f 273 261 272
f 274 193 273
f 193 275 276
f 193 276 277
f 193 278 279
f 278 193 277
f 274 275 193
f 269 270 262
f 279 196 193
f 195 201 213
f 195 194 197
f 215 192 195
f 197 194 193
f 208 209 212
f 214 215 195
f 213 214 195
f 211 212 210
f 213 203 212
f 210 212 209
f 216 192 215
f 202 213 201
f 200 201 195
f 200 195 199
f 198 199 195
f 202 203 213
f 208 212 207
f 207 212 206
f 212 205 206
f 205 212 204
f 212 203 204
f 197 198 195
f 197 193 196
f 284 281 280
f 284 280 283
f 285 282 281
f 285 281 284
f 287 284 283
f 287 283 286
f 288 285 284
f 288 284 287
f 312 323 308
f 313 314 323
f 313 323 312
f 315 323 314
f 310 308 309
f 311 312 308
f 280 307 308
f 310 311 308
f 316 323 315
f 323 321 322
f 320 321 323
f 324 280 323
f 324 325 283
f 324 283 280
f 323 318 319
f 320 323 319
f 280 308 323
f 281 307 280
f 323 317 318
f 317 323 316
f 325 326 286
f 325 286 283
f 304 296 297
f 302 303 299
f 303 304 299
f 305 282 304
f 300 301 302
f 302 299 300
f 299 304 298
f 298 304 297
f 281 305 306
f 295 296 304
f 295 304 294
f 282 289 304
f 292 304 291
f 282 305 281
f 304 293 294
f 304 292 293
f 290 291 304
f 304 289 290
f 289 282 364
f 282 285 363
f 282 363 364
f 281 306 307
f 327 286 326
f 327 329 330
f 328 329 327
f 330 331 327
f 286 343 287
f 327 332 333
f 286 327 342
f 327 331 332
f 327 333 334
f 327 335 336
f 327 337 338
f 336 337 327
f 342 327 338
f 343 344 287
f 286 342 343
f 342 338 339
f 342 340 341
f 339 340 342
f 327 334 335
f 345 287 344
f 285 288 362
f 285 362 363
f 356 357 346
f 357 358 346
f 346 361 288
f 346 358 359
f 360 361 346
f 288 361 362
f 346 359 360
f 351 347 348
f 346 347 351
f 356 346 355
f 348 349 350
f 354 346 353
f 346 354 355
f 352 346 351
f 346 352 353
f 351 348 350
f 345 346 288
f 288 287 345
f 369 368 365
f 369 365 366
f 370 369 366
f 370 366 367
f 372 371 368
f 372 368 369
f 373 372 369
f 373 369 370
f 424 423 432
f 426 425 432
f 432 425 424
f 433 423 422
f 419 418 365
f 420 419 365
f 422 421 433
f 420 365 421
f 365 418 417
f 426 432 427
f 432 431 430
f 433 421 365
f 435 434 365
f 365 434 433
f 435 365 368
f 432 430 429
f 429 428 432
f 365 417 366
f 395 370 367
f 366 417 367
f 433 432 423
f 427 432 428
f 416 367 417
f 367 414 413
f 411 367 412
f 412 367 413
f 415 414 367
f 397 409 408
f 410 409 367
f 406 398 407
f 407 397 408
f 367 411 410
f 415 367 416
f 398 403 402
f 403 398 404
f 400 398 401
f 401 398 402
f 398 405 404
f 399 398 400
f 405 398 406
f 398 397 407
f 367 409 397
f 396 367 397
f 367 396 395
f 394 370 395
f 435 368 436
f 437 368 371
f 439 449 440
f 438 437 371
f 442 441 440
f 371 439 438
f 442 440 443
f 444 443 440
f 445 440 446
f 445 444 440
f 440 447 446
f 436 368 437
f 440 449 448
f 439 450 449
f 439 371 451
f 451 450 439
f 452 451 371
f 371 454 453
f 371 455 454
f 371 457 456
f 456 455 371
f 452 371 453
f 447 440 448
f 457 371 374
f 373 391 379
f 373 375 372
f 393 373 370
f 375 371 372
f 386 390 387
f 392 373 393
f 391 373 392
f 389 388 390
f 391 390 381
f 388 387 390
f 394 393 370
f 380 379 391
f 378 373 379
f 378 377 373
f 376 373 377
f 380 391 381
f 386 385 390
f 385 384 390
f 390 384 383
f 383 382 390
f 390 382 381
f 375 373 376
f 375 374 371
f 462 461 458
f 462 458 459
f 463 462 459
f 463 459 460
f 465 464 461
f 465 461 462
f 466 465 462
f 466 462 463
f 535 534 544
f 537 536 543
f 543 536 535
f 544 534 533
f 530 529 458
f 531 530 458
f 533 532 458
f 531 458 532
f 458 529 528
f 537 543 538
f 543 542 541
f 543 541 540
f 545 544 458
f 533 458 544
f 546 545 458
f 539 543 540
f 544 543 535
f 528 459 458
f 460 506 463
f 459 528 460
f 458 461 546
f 538 543 539
f 461 547 546
f 527 460 528
f 524 523 460
f 522 460 523
f 524 460 525
f 526 525 460
f 508 520 519
f 520 508 521
f 517 509 518
f 518 508 519
f 460 522 521
f 526 460 527
f 509 514 513
f 514 509 515
f 511 509 512
f 512 509 513
f 509 516 515
f 510 509 511
f 516 509 517
f 509 508 518
f 521 508 460
f 507 460 508
f 460 507 506
f 505 463 506
f 464 548 461
f 550 549 464
f 464 549 548
f 550 476 467
f 550 464 479
f 468 467 469
f 470 469 467
f 471 467 472
f 471 470 467
f 467 473 472
f 467 475 474
f 467 476 475
f 477 550 478
f 477 476 550
f 550 479 478
f 480 464 481
f 481 464 482
f 484 483 464
f 464 483 482
f 480 479 464
f 473 467 474
f 465 484 464
f 496 501 497
f 491 466 502
f 504 466 463
f 466 484 465
f 497 501 498
f 503 466 504
f 502 466 503
f 500 499 501
f 502 501 493
f 499 498 501
f 505 504 463
f 490 489 466
f 488 466 489
f 488 487 466
f 486 466 487
f 490 466 491
f 496 495 501
f 495 494 501
f 501 494 493
f 493 492 502
f 502 492 491
f 485 466 486
f 466 485 484
f 548 547 461
f 555 554 551
f 555 551 552
f 556 555 552
f 556 552 553
f 558 557 554
f 558 554 555
f 559 558 555
f 559 555 556
f 610 609 618
f 612 611 618
f 618 611 610
f 619 609 608
f 605 604 551
f 606 605 551
f 608 607 619
f 606 551 607
f 551 604 603
f 612 618 613
f 618 617 616
f 618 616 615
f 620 619 551
f 607 551 619
f 621 620 551
f 614 618 615
f 619 618 609
f 603 552 551
f 553 581 556
f 552 603 553
f 551 554 621
f 613 618 614
f 554 622 621
f 602 553 603
f 600 599 553
f 598 597 553
f 600 553 601
f 598 553 599
f 583 595 594
f 596 595 553
f 592 584 593
f 593 583 594
f 553 597 596
f 601 553 602
f 584 589 588
f 589 584 590
f 586 584 587
f 587 584 588
f 584 591 590
f 585 584 586
f 591 584 592
f 584 583 593
f 553 595 583
f 582 553 583
f 553 582 581
f 580 556 581
f 554 557 623
f 557 625 624
f 623 557 624
f 625 635 626
f 626 629 628
f 626 630 629
f 631 626 632
f 631 630 626
f 627 626 628
f 632 626 633
f 626 635 634
f 625 636 635
f 625 557 637
f 637 636 625
f 638 637 557
f 643 642 557
f 640 639 557
f 638 557 639
f 641 557 642
f 641 640 557
f 633 626 634
f 560 643 557
f 559 577 566
f 559 561 558
f 579 559 556
f 561 557 558
f 572 576 573
f 578 559 579
f 577 559 578
f 575 574 576
f 577 576 568
f 574 573 576
f 580 579 556
f 566 565 559
f 564 559 565
f 564 563 559
f 562 559 563
f 566 577 567
f 572 571 576
f 571 570 576
f 576 570 569
f 569 568 576
f 577 568 567
f 561 559 562
f 561 560 557
f 623 622 554
f 648 645 644
f 648 644 647
f 649 646 645
f 649 645 648
f 646 649 650
f 655 648 647
f 655 647 654
f 656 649 648
f 656 648 655
f 657 650 649
f 657 649 656
f 658 651 650
f 658 650 657
f 659 652 651
f 659 651 658
f 660 653 652
f 660 652 659
f 662 655 654
f 662 654 661
f 663 656 655
f 663 655 662
f 664 657 656
f 664 656 663
f 665 658 657
f 665 657 664
f 666 659 658
f 666 658 665
f 667 660 659
f 667 659 666
f 669 662 661
f 669 661 668
f 670 663 662
f 670 662 669
f 671 664 663
f 671 663 670
f 672 665 664
f 672 664 671
f 673 666 665
f 673 665 672
f 674 667 666
f 674 666 673
f 676 669 668
f 676 668 675
f 677 670 669
f 677 669 676
f 678 671 670
f 678 670 677
f 679 672 671
f 679 671 678
f 680 673 672
f 680 672 679
f 681 674 673
f 681 673 680
f 683 676 675
f 683 675 682
f 684 677 676
f 684 676 683
f 685 678 677
f 685 677 684
f 686 679 678
f 686 678 685
f 687 680 679
f 687 679 686
f 688 681 680
f 688 680 687
f 717 721 716
f 720 718 719
f 717 718 720
f 644 715 716
f 644 714 715
f 644 713 714
f 644 712 713
f 711 712 645
f 717 720 721
f 722 644 721
f 724 647 723
f 647 722 723
f 654 724 725
f 644 645 712
f 645 646 711
f 724 654 647
f 725 661 654
f 647 644 722
f 661 725 726
f 644 716 721
f 710 711 646
f 709 710 646
f 651 708 650
f 709 650 708
f 707 708 651
f 709 646 650
f 652 706 707
f 652 705 706
f 702 703 653
f 703 704 653
f 704 705 653
f 707 651 652
f 705 652 653
f 660 700 701
f 653 660 701
f 667 696 660
f 702 653 701
f 699 660 698
f 660 699 700
f 698 660 697
f 696 697 660
f 696 667 695
f 695 667 694
f 727 668 726
f 729 675 728
f 668 727 728
f 675 729 730
f 668 728 675
f 682 730 731
f 675 730 682
f 733 682 732
f 738 683 682
f 732 682 731
f 682 734 735
f 736 737 682
f 736 682 735
f 737 738 682
f 740 685 684
f 739 683 738
f 739 684 683
f 685 740 741
f 739 740 684
f 742 685 741
f 733 734 682
f 692 674 681
f 687 744 688
f 750 689 688
f 690 681 688
f 674 693 694
f 674 692 693
f 681 690 691
f 688 689 690
f 691 692 681
f 743 687 686
f 674 694 667
f 687 743 744
f 688 745 746
f 744 745 688
f 746 747 688
f 752 689 751
f 751 689 750
f 688 749 750
f 749 688 748
f 688 747 748
f 742 743 686
f 742 686 685
f 668 661 726
f 757 756 753
f 757 753 754
f 758 757 754
f 758 754 755
f 755 759 758
f 764 763 756
f 764 756 757
f 765 764 757
f 765 757 758
f 766 765 758
f 766 758 759
f 767 766 759
f 767 759 760
f 768 767 760
f 768 760 761
f 769 768 761
f 769 761 762
f 771 770 763
f 771 763 764
f 772 771 764
f 772 764 765
f 773 772 765
f 773 765 766
f 774 773 766
f 774 766 767
f 775 774 767
f 775 767 768
f 776 775 768
f 776 768 769
f 778 777 770
f 778 770 771
f 779 778 771
f 779 771 772
f 780 779 772
f 780 772 773
f 781 780 773
f 781 773 774
f 782 781 774
f 782 774 775
f 783 782 775
f 783 775 776
f 785 784 777
f 785 777 778
f 786 785 778
f 786 778 779
f 787 786 779
f 787 779 780
f 788 787 780
f 788 780 781
f 789 788 781
f 789 781 782
f 790 789 782
f 790 782 783
f 792 791 784
f 792 784 785
f 793 792 785
f 793 785 786
f 794 793 786
f 794 786 787
f 795 794 787
f 795 787 788
f 796 795 788
f 796 788 789
f 797 796 789
f 797 789 790
f 826 825 830
f 829 828 827
f 826 829 827
f 753 825 824
f 753 824 823
f 753 823 822
f 753 822 821
f 820 754 821
f 826 830 829
f 831 830 753
f 833 832 756
f 756 832 831
f 763 834 833
f 753 821 754
f 754 820 755
f 833 756 763
f 834 763 770
f 756 831 753
f 770 835 834
f 753 830 825
f 819 755 820
f 818 755 819
f 760 759 817
f 818 817 759
f 816 760 817
f 818 759 755
f 761 816 815
f 761 815 814
f 811 762 812
f 812 762 813
f 813 762 814
f 816 761 760
f 814 762 761
f 769 810 809
f 762 810 769
f 776 769 805
f 811 810 762
f 808 807 769
f 769 809 808
f 807 806 769
f 805 769 806
f 805 804 776
f 804 803 776
f 836 835 777
f 838 837 784
f 777 837 836
f 784 839 838
f 777 784 837
f 791 840 839
f 784 791 839
f 842 841 791
f 847 791 792
f 841 840 791
f 791 844 843
f 845 791 846
f 845 844 791
f 846 791 847
f 849 793 794
f 848 847 792
f 848 792 793
f 794 850 849
f 848 793 849
f 851 850 794
f 842 791 843
f 801 790 783
f 796 797 853
f 859 797 798
f 799 797 790
f 783 803 802
f 783 802 801
f 790 800 799
f 797 799 798
f 800 790 801
f 852 795 796
f 783 776 803
f 796 853 852
f 797 855 854
f 853 797 854
f 855 797 856
f 861 860 798
f 860 859 798
f 797 859 858
f 858 857 797
f 797 857 856
f 851 795 852
f 851 794 795
f 777 835 770
f 870 863 862
f 870 862 869
f 871 864 863
f 871 863 870
f 872 865 864
f 872 864 871
f 873 866 865
f 873 865 872
f 874 867 866
f 874 866 873
f 875 868 867
f 875 867 874
f 877 870 869
f 877 869 876
f 878 871 870
f 878 870 877
f 879 872 871
f 879 871 878
f 880 873 872
f 880 872 879
f 881 874 873
f 881 873 880
f 882 875 874
f 882 874 881
f 884 877 876
f 884 876 883
f 885 878 877
f 885 877 884
f 886 879 878
f 886 878 885
f 887 880 879
f 887 879 886
f 888 881 880
f 888 880 887
f 889 882 881
f 889 881 888
f 891 884 883
f 891 883 890
f 892 885 884
f 892 884 891
f 893 886 885
f 893 885 892
f 894 887 886
f 894 886 893
f 895 888 887
f 895 887 894
f 896 889 888
f 896 888 895
f 898 893 892
f 898 892 897
f 899 894 893
f 899 893 898
f 900 895 894
f 900 894 899
f 901 896 895
f 901 895 900
f 903 900 899
f 903 899 902
f 904 901 900
f 904 900 903
f 918 919 863
f 919 920 862
f 922 926 921
f 862 920 921
f 863 917 918
f 913 865 912
f 914 865 913
f 863 916 917
f 864 915 916
f 915 864 914
f 865 911 912
f 923 925 922
f 921 926 927
f 928 862 921
f 930 869 929
f 929 862 928
f 931 869 930
f 925 926 922
f 928 921 927
f 919 862 863
f 864 865 914
f 863 864 916
f 862 929 869
f 923 924 925
f 866 911 865
f 868 983 905
f 906 868 905
f 907 908 867
f 907 868 906
f 908 909 867
f 984 905 983
f 982 983 868
f 981 982 868
f 980 981 868
f 980 868 979
f 978 979 868
f 866 909 910
f 868 976 977
f 866 867 909
f 868 907 867
f 975 976 868
f 978 868 977
f 875 971 868
f 974 975 973
f 973 975 868
f 972 973 868
f 970 971 875
f 972 868 971
f 970 875 969
f 882 969 875
f 866 910 911
f 931 876 869
f 932 933 883
f 933 934 883
f 936 883 935
f 883 934 935
f 936 937 883
f 883 876 932
f 890 883 937
f 891 890 941
f 891 943 892
f 939 940 890
f 938 939 890
f 937 938 890
f 931 932 876
f 891 941 942
f 891 942 943
f 944 897 943
f 943 897 892
f 898 897 944
f 899 898 945
f 944 945 898
f 946 899 945
f 947 902 946
f 899 946 902
f 948 903 947
f 902 947 903
f 890 940 941
f 967 968 882
f 882 968 969
f 882 966 967
f 889 966 882
f 896 964 889
f 901 962 896
f 889 965 966
f 889 964 965
f 896 962 963
f 901 960 961
f 961 962 901
f 963 964 896
f 960 901 959
f 949 904 948
f 950 904 949
f 904 951 952
f 950 951 904
f 957 904 952
f 958 959 904
f 957 958 904
f 956 953 954
f 954 955 956
f 957 953 956
f 952 953 957
f 901 904 959
f 904 903 948
f 993 992 985
f 993 985 986
f 994 993 986
f 994 986 987
f 995 994 987
f 995 987 988
f 996 995 988
f 996 988 989
f 997 996 989
f 997 989 990
f 998 997 990
f 998 990 991
f 1000 999 992
f 1000 992 993
f 1001 1000 993
f 1001 993 994
f 1002 1001 994
f 1002 994 995
f 1003 1002 995
f 1003 995 996
f 1004 1003 996
f 1004 996 997
f 1005 1004 997
f 1005 997 998
f 1007 1006 999
f 1007 999 1000
f 1008 1007 1000
f 1008 1000 1001
f 1009 1008 1001
f 1009 1001 1002
f 1010 1009 1002
f 1010 1002 1003
f 1011 1010 1003
f 1011 1003 1004
f 1012 1011 1004
f 1012 1004 1005
f 1014 1013 1006
f 1014 1006 1007
f 1015 1014 1007
f 1015 1007 1008
f 1016 1015 1008
f 1016 1008 1009
f 1017 1016 1009
f 1017 1009 1010
f 1018 1017 1010
f 1018 1010 1011
f 1019 1018 1011
f 1019 1011 1012
f 1021 1020 1015
f 1021 1015 1016
f 1022 1021 1016
f 1022 1016 1017
f 1023 1022 1017
f 1023 1017 1018
f 1024 1023 1018
f 1024 1018 1019
f 1026 1025 1022
f 1026 1022 1023
f 1027 1026 1023
f 1027 1023 1024
f 1041 986 1042
f 1042 985 1043
f 1045 1044 1049
f 985 1044 1043
f 986 1041 1040
f 1036 1035 988
f 1037 1036 988
f 986 1040 1039
f 987 1039 1038
f 1038 1037 987
f 988 1035 1034
f 1046 1045 1048
f 1044 1050 1049
f 1051 1044 985
f 1053 1052 992
f 1052 1051 985
f 1054 1053 992
f 1048 1045 1049
f 1051 1050 1044
f 1042 986 985
f 987 1037 988
f 986 1039 987
f 985 992 1052
f 1046 1048 1047
f 989 988 1034
f 991 1028 1106
f 1029 1028 991
f 1030 990 1031
f 1030 1029 991
f 1031 990 1032
f 1107 1106 1028
f 1105 991 1106
f 1104 991 1105
f 1103 991 1104
f 1103 1102 991
f 1101 991 1102
f 989 1033 1032
f 991 1100 1099
f 989 1032 990
f 991 990 1030
f 1098 991 1099
f 1101 1100 991
f 998 991 1094
f 1097 1096 1098
f 1096 991 1098
f 1095 991 1096
f 1093 998 1094
f 1095 1094 991
f 1093 1092 998
f 1005 998 1092
f 989 1034 1033
f 1054 992 999
f 1055 1006 1056
f 1056 1006 1057
f 1059 1058 1006
f 1006 1058 1057
f 1059 1006 1060
f 1006 1055 999
f 1013 1060 1006
f 1014 1064 1013
f 1014 1015 1066
f 1062 1013 1063
f 1061 1013 1062
f 1060 1013 1061
f 1054 999 1055
f 1014 1065 1064
f 1014 1066 1065
f 1067 1066 1020
f 1066 1015 1020
f 1021 1067 1020
f 1022 1068 1021
f 1067 1021 1068
f 1069 1068 1022
f 1070 1069 1025
f 1022 1025 1069
f 1071 1070 1026
f 1025 1026 1070
f 1013 1064 1063
f 1090 1005 1091
f 1005 1092 1091
f 1005 1090 1089
f 1012 1005 1089
f 1019 1012 1087
f 1024 1019 1085
f 1012 1089 1088
f 1012 1088 1087
f 1019 1086 1085
f 1024 1084 1083
f 1084 1024 1085
f 1086 1019 1087
f 1083 1082 1024
f 1072 1071 1027
f 1073 1072 1027
f 1027 1075 1074
f 1073 1027 1074
f 1080 1075 1027
f 1081 1027 1082
f 1080 1027 1081
f 1079 1077 1076
f 1077 1079 1078
f 1080 1079 1076
f 1075 1080 1076
f 1024 1082 1027
f 1027 1071 1026

