mtllib heybeliada_materials.mtl
usemtl WaterlineBlack
# https://github.com/mikedh/trimesh
v -48.05347424 2.80694507 0.00000000
v -48.10001782 -0.00002939 0.00000000
v -48.08837939 -1.40380115 0.00000000
v -47.99533337 -4.20883154 0.00000000
v -47.95969385 4.11972559 -0.07637036
v -48.01624316 2.74751221 -0.07637036
v -48.05019409 1.37402673 -0.07637036
v -48.06151270 -0.00002859 -0.07637036
v -48.05019275 -1.37407568 -0.07637036
v -48.01624182 -2.74753882 -0.07637036
v -47.95969385 -4.11972559 -0.07637036
v -47.91828809 3.99611865 -0.16509692
v -47.97281787 2.66507080 -0.16509692
v -48.00555627 1.33279626 -0.16509692
v -48.01647058 -0.00002756 -0.16509692
v -48.00555493 -1.33284351 -0.16509692
v -47.97281653 -2.66509619 -0.16509692
v -47.91828809 -3.99611865 -0.16509692
v -47.88145093 3.86752124 -0.24403394
v -47.93396106 2.57930249 -0.24403394
v -47.96548682 1.28990247 -0.24403394
v -47.97599695 -0.00002654 -0.24403394
v -47.96548560 -1.28994800 -0.24403394
v -47.93395972 -2.57932715 -0.24403394
v -47.88145093 -3.86752124 -0.24403394
v -47.86493250 2.39846729 -0.38329663
v -47.89403320 1.19946558 -0.38329663
v -47.90373486 -0.00002450 -0.38329663
v -47.89403210 -1.19950757 -0.38329663
v -47.86493127 -2.39848999 -0.38329663
v -47.80866663 -3.55996509 -0.40000000
v -48.02730469 -3.50811230 0.00000000
v -48.05347290 -2.80697241 0.00000000
v -48.07383289 -2.10550439 0.00000000
v -48.09710803 -0.70195148 0.00000000
v -48.09710876 0.70189478 0.00000000
v -48.08838074 1.40375073 0.00000000
v -48.07383447 2.10546436 0.00000000
v -48.02730554 3.50809912 0.00000000
v -47.99533337 4.20883154 0.00000000
v -47.80866663 3.55996509 -0.40000000
v -47.80866663 3.55995947 -0.40000000
v -47.83502954 2.96724292 -0.40000000
v -47.85660718 2.37417920 -0.40000000
v -47.87339526 1.78084570 -0.40000000
v -47.88538953 1.18732031 -0.40000000
v -47.89258630 0.59367615 -0.40000000
v -47.89498511 -0.00002423 -0.40000000
v -47.89258569 -0.59372290 -0.40000000
v -47.88538843 -1.18736182 -0.40000000
v -47.87339404 -1.78087878 -0.40000000
v -47.85660608 -2.37420166 -0.40000000
v -47.83502881 -2.96725391 -0.40000000
v -47.80866663 -3.55995947 -0.40000000
v -47.83091992 3.28518701 -0.38329663
v -47.83091943 -3.28519263 -0.38329663
v -47.88120813 3.86661450 -0.24455396
v -47.95504224 4.10692529 -0.08633813
v 1.27454297 6.85098730 -0.20387158
v 1.27454297 6.88441943 -0.05002246
v 8.33294531 6.62615088 -0.25326074
v 8.33294531 6.66297607 -0.09976074
v 14.96716016 6.23028076 -0.17656079
v 26.37012500 5.00241504 -0.22016846
v 30.86755469 4.29027979 -0.33465088
v 30.86614844 4.35472070 -0.14606494
v 37.16664062 3.01318555 -0.35154102
v 37.18333594 3.08308545 -0.13078125
v 43.91190625 0.00000000 0.00000000
v 4.84421484 6.76479102 -0.22578735
v 34.42796094 3.66850928 -0.25219604
v 30.86599219 4.32130615 -0.24283643
v 34.42767969 3.63547998 -0.35133423
v 37.17232031 3.04677905 -0.24434888
v 34.43154688 3.70413818 -0.14739868
v 39.26670312 2.44702075 -0.21941382
v 39.25120313 2.41441138 -0.33467139
v 43.90135937 0.05748092 0.00000000
v 43.87753125 0.11084207 0.00000000
v 43.81232813 0.20684558 0.00000000
v 43.73635937 0.29300299 0.00000000
v 43.65427344 0.37334015 0.00000000
v 43.48154687 0.52049268 0.00000000
v 43.30019531 0.65687476 0.00000000
v 42.92625000 0.90532678 0.00000000
v 42.53947656 1.13330701 0.00000000
v 42.14729688 1.34400732 0.00000000
v 41.74855469 1.54201904 0.00000000
v 40.93603125 1.90590930 0.00000000
v 40.33261719 2.14783228 0.00000000
v 39.72216406 2.37138647 0.00000000
v 39.10589063 2.57829761 0.00000000
v 38.48487500 2.77047949 0.00000000
v 37.23235156 3.11766064 0.00000000
v 35.96952344 3.42522168 0.00000000
v 34.70071875 3.70198120 0.00000000
v 34.06435156 3.83103540 0.00000000
v 33.42692969 3.95476221 0.00000000
v 30.86932812 4.40631885 0.00000000
v 30.17017969 4.51960059 0.00000000
v 29.47046875 4.62932080 0.00000000
v 28.77023438 4.73569385 0.00000000
v 28.06953125 4.83889551 0.00000000
v 27.36839062 4.93906934 0.00000000
v 26.66683594 5.03633545 0.00000000
v 25.96490625 5.13079297 0.00000000
v 25.26260938 5.22252588 0.00000000
v 23.85703125 5.39808496 0.00000000
v 22.45021875 5.56345215 0.00000000
v 21.04228125 5.71893164 0.00000000
v 19.63330469 5.86472852 0.00000000
v 18.22341406 6.00096777 0.00000000
v 16.81264063 6.12772119 0.00000000
v 15.40105469 6.24500732 0.00000000
v 13.98870703 6.35280420 0.00000000
v 11.16198047 6.53967871 0.00000000
v 8.33294531 6.68757227 0.00000000
v 4.76667969 6.81891650 0.00000000
v 1.19884375 6.89661670 0.00000000
v -0.58535938 6.91779199 0.00000000
v -2.36965625 6.92822900 0.00000000
v -4.15398047 6.92858545 0.00000000
v -5.93828516 6.91943750 0.00000000
v -7.72241797 6.90129248 0.00000000
v -9.50644922 6.87459229 0.00000000
v -11.29033203 6.83972412 0.00000000
v -13.07405078 6.79702539 0.00000000
v -14.85756250 6.74678613 0.00000000
v -16.64085938 6.68925098 0.00000000
v -18.42390820 6.62462158 0.00000000
v -20.20669336 6.55305273 0.00000000
v -22.16037695 6.46658838 0.00000000
v -24.11363672 6.37098828 0.00000000
v -26.06638281 6.26541699 0.00000000
v -28.01852539 6.14918408 0.00000000
v -29.96997852 6.02177100 0.00000000
v -31.92064648 5.88282812 0.00000000
v -33.87044336 5.73213672 0.00000000
v -34.84498828 5.65233301 0.00000000
v -35.81928125 5.56952393 0.00000000
v -37.34480371 5.43279004 0.00000000
v -38.86944922 5.28659863 0.00000000
v -40.39314063 5.13077588 0.00000000
v -41.91580664 4.96523975 0.00000000
v -43.43738672 4.79002246 0.00000000
v -44.95784131 4.60529492 0.00000000
v -45.71763940 4.50946289 0.00000000
v -46.47715186 4.41139355 0.00000000
v -47.23638135 4.31115820 0.00000000
v -47.99533337 4.20884131 0.00000000
v -46.95438306 3.71496802 -0.40000000
v -46.09952612 3.86678247 -0.40000000
v -45.24404443 4.01504077 -0.40000000
v -44.38790234 4.15943408 -0.40000000
v -43.53107031 4.29970801 -0.40000000
v -42.67354102 4.43565332 -0.40000000
v -41.81531152 4.56710840 -0.40000000
v -40.95638867 4.69395557 -0.40000000
v -37.51407324 5.15416553 -0.40000000
v -34.06259961 5.53973291 -0.40000000
v -30.60455859 5.85603125 -0.40000000
v -28.87354687 5.99084326 -0.40000000
v -27.14150781 6.11172900 -0.40000000
v -25.40867578 6.21998047 -0.40000000
v -23.67517383 6.31690918 -0.40000000
v -21.94114258 6.40380518 -0.40000000
v -20.20669336 6.48191455 -0.40000000
v -19.31373828 6.51906689 -0.40000000
v -18.42070508 6.55424951 -0.40000000
v -16.63441797 6.61881250 -0.40000000
v -14.84787109 6.67571045 -0.40000000
v -13.06109766 6.72490771 -0.40000000
v -11.72407031 6.75664258 -0.40000000
v -10.38694141 6.78396436 -0.40000000
v -9.04973047 6.80673926 -0.40000000
v -7.71244922 6.82481836 -0.40000000
v -6.37510547 6.83803467 -0.40000000
v -5.03772266 6.84620361 -0.40000000
v -3.70031641 6.84912158 -0.40000000
v -2.36291016 6.84656201 -0.40000000
v -1.02548438 6.83827588 -0.40000000
v 0.31189062 6.82398633 -0.40000000
v 1.64918750 6.80338721 -0.40000000
v 2.98636328 6.77613818 -0.40000000
v 5.66019922 6.70012793 -0.40000000
v 8.33294531 6.59234082 -0.40000000
v 11.16233203 6.43967627 -0.40000000
v 13.98930859 6.24747021 -0.40000000
v 15.40173828 6.13682324 -0.40000000
v 16.81338281 6.01658740 -0.40000000
v 18.22418750 5.88680762 -0.40000000
v 19.63407812 5.74749463 -0.40000000
v 21.04302344 5.59861133 -0.40000000
v 22.45091406 5.44007471 -0.40000000
v 23.85767188 5.27172754 -0.40000000
v 25.26317969 5.09332373 -0.40000000
v 25.96544531 5.00023975 -0.40000000
v 26.66735156 4.90449072 -0.40000000
v 27.36887500 4.80600391 -0.40000000
v 28.07000000 4.70469141 -0.40000000
v 28.77069531 4.60044580 -0.40000000
v 29.47092969 4.49313770 -0.40000000
v 30.17066406 4.38260840 -0.40000000
v 30.86984375 4.26866162 -0.40000000
v 33.39977344 3.82138892 -0.40000000
v 34.03039063 3.69933447 -0.40000000
v 34.66000781 3.57221436 -0.40000000
v 35.91550000 3.30014209 -0.40000000
v 37.16533594 2.99837207 -0.40000000
v 38.40521094 2.65796533 -0.40000000
v 39.63015625 2.26614185 -0.40000000
v 40.23445313 2.04606201 -0.40000000
v 40.83157031 1.80719226 -0.40000000
v 41.60609375 1.46015308 -0.40000000
v 41.98610937 1.27117322 -0.40000000
v 42.35985156 1.07006177 -0.40000000
v 42.72812500 0.85281866 -0.40000000
v 43.08454688 0.61661505 -0.40000000
v 43.25754688 0.48759833 -0.40000000
v 43.42296875 0.34900061 -0.40000000
v 43.50200781 0.27377103 -0.40000000
v 43.57582031 0.19340857 -0.40000000
v 43.64051562 0.10414885 -0.40000000
v 43.66513281 0.05434729 -0.40000000
v 43.67664844 0.00000000 -0.40000000
v -20.20669336 6.54143408 -0.06658765
v -22.30688672 6.45278516 -0.04028979
v 40.84889063 1.83032202 -0.30308862
v -13.22905859 6.76940137 -0.12803540
v -5.99071875 6.88566162 -0.16796313
v -5.99071875 6.91599121 -0.01515552
v 17.01154688 6.00966455 -0.35912500
v 16.73525781 6.12356689 -0.03720825
v 24.82185937 5.16482617 -0.35245630
v 26.36953125 5.06439209 -0.03569458
v 34.55867188 3.71642554 -0.04066650
v 42.06309375 1.23726147 -0.38071118
v -47.88120813 -3.86661450 -0.24455396
v -47.95504224 -4.10692529 -0.08633813
v 1.27454297 -6.85098730 -0.20387158
v 1.27454297 -6.88441943 -0.05002246
v 8.33294531 -6.62615088 -0.25326074
v 8.33294531 -6.66297607 -0.09976074
v 14.96716016 -6.23028076 -0.17656079
v 26.37012500 -5.00241504 -0.22016846
v 30.86755469 -4.29027979 -0.33465088
v 30.86614844 -4.35472070 -0.14606494
v 37.16664062 -3.01318555 -0.35154102
v 37.18333594 -3.08308545 -0.13078125
v 4.84421484 -6.76479102 -0.22578735
v 34.42796094 -3.66850928 -0.25219604
v 30.86599219 -4.32130615 -0.24283643
v 34.42767969 -3.63547998 -0.35133423
v 37.17232031 -3.04677905 -0.24434888
v 34.43154688 -3.70413818 -0.14739868
v 39.26670312 -2.44702075 -0.21941382
v 39.25120313 -2.41441138 -0.33467139
v 43.90135937 -0.05748092 0.00000000
v 43.87753125 -0.11084207 0.00000000
v 43.81232813 -0.20684558 0.00000000
v 43.73635937 -0.29300299 0.00000000
v 43.65427344 -0.37334015 0.00000000
v 43.48154687 -0.52049268 0.00000000
v 43.30019531 -0.65687476 0.00000000
v 42.92625000 -0.90532678 0.00000000
v 42.53947656 -1.13330701 0.00000000
v 42.14729688 -1.34400732 0.00000000
v 41.74855469 -1.54201904 0.00000000
v 40.93603125 -1.90590930 0.00000000
v 40.33261719 -2.14783228 0.00000000
v 39.72216406 -2.37138647 0.00000000
v 39.10589063 -2.57829761 0.00000000
v 38.48487500 -2.77047949 0.00000000
v 37.23235156 -3.11766064 0.00000000
v 35.96952344 -3.42522168 0.00000000
v 34.70071875 -3.70198120 0.00000000
v 34.06435156 -3.83103540 0.00000000
v 33.42692969 -3.95476221 0.00000000
v 30.86932812 -4.40631885 0.00000000
v 30.17017969 -4.51960059 0.00000000
v 29.47046875 -4.62932080 0.00000000
v 28.77023438 -4.73569385 0.00000000
v 28.06953125 -4.83889551 0.00000000
v 27.36839062 -4.93906934 0.00000000
v 26.66683594 -5.03633545 0.00000000
v 25.96490625 -5.13079297 0.00000000
v 25.26260938 -5.22252588 0.00000000
v 23.85703125 -5.39808496 0.00000000
v 22.45021875 -5.56345215 0.00000000
v 21.04228125 -5.71893164 0.00000000
v 19.63330469 -5.86472852 0.00000000
v 18.22341406 -6.00096777 0.00000000
v 16.81264063 -6.12772119 0.00000000
v 15.40105469 -6.24500732 0.00000000
v 13.98870703 -6.35280420 0.00000000
v 11.16198047 -6.53967871 0.00000000
v 8.33294531 -6.68757227 0.00000000
v 4.76667969 -6.81891650 0.00000000
v 1.19884375 -6.89661670 0.00000000
v -0.58535938 -6.91779199 0.00000000
v -2.36965625 -6.92822900 0.00000000
v -4.15398047 -6.92858545 0.00000000
v -5.93828516 -6.91943750 0.00000000
v -7.72241797 -6.90129248 0.00000000
v -9.50644922 -6.87459229 0.00000000
v -11.29033203 -6.83972412 0.00000000
v -13.07405078 -6.79702539 0.00000000
v -14.85756250 -6.74678613 0.00000000
v -16.64085938 -6.68925098 0.00000000
v -18.42390820 -6.62462158 0.00000000
v -20.20669336 -6.55305273 0.00000000
v -22.16037695 -6.46658838 0.00000000
v -24.11363672 -6.37098828 0.00000000
v -26.06638281 -6.26541699 0.00000000
v -28.01852539 -6.14918408 0.00000000
v -29.96997852 -6.02177100 0.00000000
v -31.92064648 -5.88282812 0.00000000
v -33.87044336 -5.73213672 0.00000000
v -34.84498828 -5.65233301 0.00000000
v -35.81928125 -5.56952393 0.00000000
v -37.34480371 -5.43279004 0.00000000
v -38.86944922 -5.28659863 0.00000000
v -40.39314063 -5.13077588 0.00000000
v -41.91580664 -4.96523975 0.00000000
v -43.43738672 -4.79002246 0.00000000
v -44.95784131 -4.60529492 0.00000000
v -45.71763940 -4.50946289 0.00000000
v -46.47715186 -4.41139355 0.00000000
v -47.23638135 -4.31115820 0.00000000
v -47.99533337 -4.20884131 0.00000000
v -46.95438306 -3.71496802 -0.40000000
v -46.09952612 -3.86678247 -0.40000000
v -45.24404443 -4.01504077 -0.40000000
v -44.38790234 -4.15943408 -0.40000000
v -43.53107031 -4.29970801 -0.40000000
v -42.67354102 -4.43565332 -0.40000000
v -41.81531152 -4.56710840 -0.40000000
v -40.95638867 -4.69395557 -0.40000000
v -37.51407324 -5.15416553 -0.40000000
v -34.06259961 -5.53973291 -0.40000000
v -30.60455859 -5.85603125 -0.40000000
v -28.87354687 -5.99084326 -0.40000000
v -27.14150781 -6.11172900 -0.40000000
v -25.40867578 -6.21998047 -0.40000000
v -23.67517383 -6.31690918 -0.40000000
v -21.94114258 -6.40380518 -0.40000000
v -20.20669336 -6.48191455 -0.40000000
v -19.31373828 -6.51906689 -0.40000000
v -18.42070508 -6.55424951 -0.40000000
v -16.63441797 -6.61881250 -0.40000000
v -14.84787109 -6.67571045 -0.40000000
v -13.06109766 -6.72490771 -0.40000000
v -11.72407031 -6.75664258 -0.40000000
v -10.38694141 -6.78396436 -0.40000000
v -9.04973047 -6.80673926 -0.40000000
v -7.71244922 -6.82481836 -0.40000000
v -6.37510547 -6.83803467 -0.40000000
v -5.03772266 -6.84620361 -0.40000000
v -3.70031641 -6.84912158 -0.40000000
v -2.36291016 -6.84656201 -0.40000000
v -1.02548438 -6.83827588 -0.40000000
v 0.31189062 -6.82398633 -0.40000000
v 1.64918750 -6.80338721 -0.40000000
v 2.98636328 -6.77613818 -0.40000000
v 5.66019922 -6.70012793 -0.40000000
v 8.33294531 -6.59234082 -0.40000000
v 11.16233203 -6.43967627 -0.40000000
v 13.98930859 -6.24747021 -0.40000000
v 15.40173828 -6.13682324 -0.40000000
v 16.81338281 -6.01658740 -0.40000000
v 18.22418750 -5.88680762 -0.40000000
v 19.63407812 -5.74749463 -0.40000000
v 21.04302344 -5.59861133 -0.40000000
v 22.45091406 -5.44007471 -0.40000000
v 23.85767188 -5.27172754 -0.40000000
v 25.26317969 -5.09332373 -0.40000000
v 25.96544531 -5.00023975 -0.40000000
v 26.66735156 -4.90449072 -0.40000000
v 27.36887500 -4.80600391 -0.40000000
v 28.07000000 -4.70469141 -0.40000000
v 28.77069531 -4.60044580 -0.40000000
v 29.47092969 -4.49313770 -0.40000000
v 30.17066406 -4.38260840 -0.40000000
v 30.86984375 -4.26866162 -0.40000000
v 33.39977344 -3.82138892 -0.40000000
v 34.03039063 -3.69933447 -0.40000000
v 34.66000781 -3.57221436 -0.40000000
v 35.91550000 -3.30014209 -0.40000000
v 37.16533594 -2.99837207 -0.40000000
v 38.40521094 -2.65796533 -0.40000000
v 39.63015625 -2.26614185 -0.40000000
v 40.23445313 -2.04606201 -0.40000000
v 40.83157031 -1.80719226 -0.40000000
v 41.60609375 -1.46015308 -0.40000000
v 41.98610937 -1.27117322 -0.40000000
v 42.35985156 -1.07006177 -0.40000000
v 42.72812500 -0.85281866 -0.40000000
v 43.08454688 -0.61661505 -0.40000000
v 43.25754688 -0.48759833 -0.40000000
v 43.42296875 -0.34900061 -0.40000000
v 43.50200781 -0.27377103 -0.40000000
v 43.57582031 -0.19340857 -0.40000000
v 43.64051562 -0.10414885 -0.40000000
v 43.66513281 -0.05434729 -0.40000000
v -20.20669336 -6.54143408 -0.06658765
v -22.30688672 -6.45278516 -0.04028979
v 40.84889063 -1.83032202 -0.30308862
v -13.22905859 -6.76940137 -0.12803540
v -5.99071875 -6.88566162 -0.16796313
v -5.99071875 -6.91599121 -0.01515552
v 17.01154688 -6.00966455 -0.35912500
v 16.73525781 -6.12356689 -0.03720825
v 24.82185937 -5.16482617 -0.35245630
v 26.36953125 -5.06439209 -0.03569458
v 34.55867188 -3.71642554 -0.04066650
v 42.06309375 -1.23726147 -0.38071118
f 13 6 5
f 13 5 12
f 14 7 6
f 14 6 13
f 15 8 7
f 15 7 14
f 16 9 8
f 16 8 15
f 17 10 9
f 17 9 16
f 18 11 10
f 18 10 17
f 20 13 12
f 20 12 19
f 21 14 13
f 21 13 20
f 22 15 14
f 22 14 21
f 23 16 15
f 23 15 22
f 24 17 16
f 24 16 23
f 27 21 20
f 27 20 26
f 28 22 21
f 28 21 27
f 29 23 22
f 29 22 28
f 30 24 23
f 30 23 29
f 5 39 40
f 6 1 39
f 7 37 38
f 7 36 37
f 38 1 6
f 6 7 38
f 36 7 8
f 36 8 2
f 20 19 55
f 20 55 26
f 5 6 39
f 9 3 35
f 9 34 3
f 10 32 33
f 11 4 32
f 33 34 10
f 35 8 9
f 34 9 10
f 18 17 24
f 18 24 25
f 32 10 11
f 8 35 2
f 42 55 41
f 19 41 55
f 26 55 43
f 26 43 44
f 27 26 44
f 27 44 45
f 28 27 46
f 28 46 47
f 55 42 43
f 28 47 48
f 27 45 46
f 49 28 48
f 49 29 28
f 30 29 51
f 30 51 52
f 25 24 30
f 25 30 56
f 56 30 52
f 56 52 53
f 31 25 56
f 49 50 29
f 29 50 51
f 56 53 54
f 56 54 31
f 70 62 61
f 60 70 59
f 62 70 60
f 63 61 62
f 64 72 65
f 72 64 66
f 71 73 72
f 71 72 66
f 75 68 74
f 66 75 71
f 74 67 71
f 74 71 75
f 76 77 74
f 76 74 68
f 57 151 42
f 157 57 58
f 151 57 152
f 152 57 153
f 226 167 227
f 226 168 167
f 57 155 154
f 57 154 153
f 58 158 157
f 57 157 156
f 57 156 155
f 159 158 58
f 76 228 212
f 149 148 159
f 146 159 147
f 147 159 148
f 149 58 150
f 160 145 144
f 146 145 159
f 160 144 143
f 142 160 143
f 161 142 141
f 160 159 145
f 149 159 58
f 228 214 213
f 141 140 161
f 163 162 138
f 138 162 139
f 140 162 161
f 166 165 134
f 165 164 135
f 169 168 226
f 169 226 170
f 167 166 227
f 164 163 136
f 139 162 140
f 226 229 170
f 170 229 171
f 172 229 173
f 229 172 171
f 173 229 174
f 176 175 230
f 175 174 229
f 179 178 230
f 178 177 230
f 177 176 230
f 180 179 230
f 160 142 161
f 136 163 137
f 136 135 164
f 134 165 135
f 138 137 163
f 226 132 131
f 226 129 229
f 175 229 230
f 226 131 130
f 133 132 227
f 132 226 227
f 125 230 229
f 134 133 227
f 227 166 134
f 128 229 129
f 128 127 229
f 126 229 127
f 226 130 129
f 125 124 230
f 229 126 125
f 123 231 124
f 231 123 122
f 231 60 59
f 231 59 230
f 60 231 122
f 231 230 124
f 59 182 181
f 184 183 59
f 182 59 183
f 70 184 59
f 121 60 122
f 185 70 61
f 185 61 186
f 232 189 188
f 61 187 186
f 188 61 232
f 184 70 185
f 60 121 120
f 119 60 120
f 60 119 118
f 118 117 62
f 60 118 62
f 116 63 62
f 115 63 116
f 117 116 62
f 115 114 63
f 233 63 114
f 113 233 114
f 192 232 63
f 61 188 187
f 63 232 61
f 59 180 230
f 59 181 180
f 232 191 190
f 193 63 194
f 191 232 192
f 194 63 234
f 63 193 192
f 63 233 64
f 63 64 234
f 196 195 234
f 197 234 64
f 196 234 197
f 198 197 64
f 194 234 195
f 113 112 233
f 233 111 64
f 64 111 110
f 233 112 111
f 64 108 107
f 110 109 64
f 104 235 105
f 235 64 107
f 107 106 235
f 105 235 106
f 64 202 201
f 108 64 109
f 199 198 64
f 190 189 232
f 64 201 200
f 65 202 64
f 203 202 65
f 65 205 204
f 72 205 65
f 203 65 204
f 72 73 205
f 205 73 206
f 207 206 73
f 235 66 64
f 66 103 102
f 71 207 73
f 102 101 66
f 104 103 235
f 66 235 103
f 67 209 208
f 210 209 67
f 67 208 71
f 211 210 77
f 74 210 67
f 71 208 207
f 212 211 76
f 199 64 200
f 101 100 66
f 75 66 98
f 66 100 99
f 98 66 99
f 236 75 97
f 89 228 90
f 76 211 77
f 210 74 77
f 76 91 90
f 214 237 215
f 93 76 68
f 236 68 75
f 95 68 236
f 97 75 98
f 236 97 96
f 96 95 236
f 68 95 94
f 68 94 93
f 76 93 92
f 91 76 92
f 212 228 213
f 90 228 76
f 228 89 88
f 237 214 228
f 88 87 237
f 216 215 237
f 217 216 86
f 87 216 237
f 217 85 218
f 82 221 220
f 83 220 219
f 79 224 223
f 80 223 222
f 81 222 221
f 219 218 84
f 84 218 85
f 86 85 217
f 83 82 220
f 84 83 219
f 86 216 87
f 81 80 222
f 221 82 81
f 80 79 223
f 224 79 78
f 69 225 78
f 225 224 78
f 237 228 88
f 250 242 243
f 241 240 250
f 243 241 250
f 244 243 242
f 245 246 252
f 252 247 245
f 251 247 252
f 251 252 253
f 255 254 249
f 247 251 255
f 254 255 251
f 254 251 248
f 256 249 254
f 256 254 257
f 238 54 331
f 337 239 238
f 331 332 238
f 332 333 238
f 405 406 347
f 405 347 348
f 238 334 335
f 238 333 334
f 239 337 338
f 238 336 337
f 238 335 336
f 339 239 338
f 256 392 407
f 329 339 328
f 326 327 339
f 327 328 339
f 329 330 239
f 340 324 325
f 326 339 325
f 340 323 324
f 322 323 340
f 341 321 322
f 340 325 339
f 329 239 339
f 407 393 394
f 321 341 320
f 343 318 342
f 318 319 342
f 320 341 342
f 346 314 345
f 345 315 344
f 349 405 348
f 349 350 405
f 347 406 346
f 344 316 343
f 319 320 342
f 405 350 408
f 350 351 408
f 352 353 408
f 408 351 352
f 353 354 408
f 356 409 355
f 355 408 354
f 359 409 358
f 358 409 357
f 357 409 356
f 360 409 359
f 340 341 322
f 316 317 343
f 316 344 315
f 314 315 345
f 318 343 317
f 405 311 312
f 405 408 309
f 355 409 408
f 405 310 311
f 313 406 312
f 312 406 405
f 305 408 409
f 314 406 313
f 406 314 346
f 308 309 408
f 308 408 307
f 306 307 408
f 405 309 310
f 305 409 304
f 408 305 306
f 303 304 410
f 410 302 303
f 410 409 240
f 410 240 241
f 241 302 410
f 410 304 409
f 240 361 362
f 364 240 363
f 362 363 240
f 250 240 364
f 301 302 241
f 365 242 250
f 365 366 242
f 411 368 369
f 242 366 367
f 368 411 242
f 364 365 250
f 300 301 241
f 241 243 298
f 241 299 300
f 241 298 299
f 298 243 297
f 297 243 296
f 296 243 244
f 295 296 244
f 295 244 294
f 412 294 244
f 293 294 412
f 372 244 411
f 242 367 368
f 244 242 411
f 240 409 360
f 240 360 361
f 411 370 371
f 373 374 244
f 371 372 411
f 374 413 244
f 244 372 373
f 244 413 245
f 244 245 412
f 376 413 375
f 377 245 413
f 376 377 413
f 378 245 377
f 374 375 413
f 293 412 292
f 412 245 291
f 245 290 291
f 412 291 292
f 245 287 288
f 290 245 289
f 284 285 414
f 414 287 245
f 287 414 286
f 285 286 414
f 245 381 382
f 288 289 245
f 379 245 378
f 370 411 369
f 245 380 381
f 246 245 382
f 383 246 382
f 246 384 385
f 252 246 385
f 383 384 246
f 252 385 253
f 385 386 253
f 387 253 386
f 414 245 247
f 247 282 283
f 251 253 387
f 282 247 281
f 284 414 283
f 247 283 414
f 248 388 389
f 390 248 389
f 248 251 388
f 391 257 390
f 254 248 390
f 251 387 388
f 392 256 391
f 379 380 245
f 281 247 280
f 255 278 247
f 247 279 280
f 278 279 247
f 415 277 255
f 269 270 407
f 256 257 391
f 390 257 254
f 256 270 271
f 394 395 416
f 273 249 256
f 415 255 249
f 275 415 249
f 277 278 255
f 415 276 277
f 276 415 275
f 249 274 275
f 249 273 274
f 256 272 273
f 271 272 256
f 392 393 407
f 270 256 407
f 407 268 269
f 416 407 394
f 268 416 267
f 396 416 395
f 397 266 396
f 267 416 396
f 397 398 265
f 262 400 401
f 263 399 400
f 259 403 404
f 260 402 403
f 261 401 402
f 399 264 398
f 264 265 398
f 266 397 265
f 263 400 262
f 264 399 263
f 266 267 396
f 261 402 260
f 401 261 262
f 260 403 259
f 404 258 259
f 69 258 225
f 225 258 404
f 416 268 407

