mtllib heybeliada_materials.mtl
usemtl ShaftGray
# https://github.com/mikedh/trimesh
v -37.31220215 2.61652759 -2.22898218
v -43.45834521 2.61652759 -2.76670007
v -37.31375293 2.61732861 -2.21125879
v -43.45989600 2.61732861 -2.74897656
v -37.31534277 2.61983325 -2.19309058
v -43.46148535 2.61983325 -2.73080847
v -37.31695117 2.62417065 -2.17470825
v -43.46309375 2.62417065 -2.71242603
v -37.31855469 2.63042969 -2.15637683
v -43.46469775 2.63042969 -2.69409460
v -37.32012891 2.63864746 -2.13838794
v -43.46627148 2.63864746 -2.67610571
v -37.32164551 2.64880249 -2.12104700
v -43.46778857 2.64880249 -2.65876477
v -37.32307910 2.66080981 -2.10465808
v -43.46922217 2.66080981 -2.64237585
v -37.32440527 2.67452051 -2.08950781
v -43.47054785 2.67452051 -2.62722571
v -37.32559961 2.68972852 -2.07584924
v -43.47174268 2.68972852 -2.61356702
v -37.32664648 2.70618018 -2.06388770
v -43.47278906 2.70618018 -2.60160559
v -37.32753125 2.72358740 -2.05377124
v -43.47367432 2.72358740 -2.59148914
v -37.32824805 2.74164502 -2.04558472
v -43.47439062 2.74164502 -2.58330249
v -37.32879297 2.76004639 -2.03934961
v -43.47493604 2.76004639 -2.57706738
v -37.32917090 2.77849902 -2.03502856
v -43.47531396 2.77849902 -2.57274646
v -37.32938965 2.79673657 -2.03253357
v -43.47553223 2.79673657 -2.57025134
v -37.32945898 2.81452759 -2.03173560
v -43.47560205 2.81452759 -2.56945349
v -37.32938965 2.83231885 -2.03253357
v -43.47553223 2.83231885 -2.57025134
v -37.32917090 2.85055640 -2.03502856
v -43.47531396 2.85055640 -2.57274646
v -37.32879297 2.86900903 -2.03934961
v -43.47493604 2.86900903 -2.57706738
v -37.32824805 2.88741040 -2.04558472
v -43.47439062 2.88741040 -2.58330249
v -37.32753125 2.90546802 -2.05377124
v -43.47367432 2.90546802 -2.59148914
v -37.32664648 2.92287524 -2.06388770
v -43.47278906 2.92287524 -2.60160559
v -37.32559961 2.93932666 -2.07584924
v -43.47174268 2.93932666 -2.61356702
v -37.32440527 2.95453491 -2.08950781
v -43.47054785 2.95453491 -2.62722571
v -37.32307910 2.96824561 -2.10465808
v -43.46922217 2.96824561 -2.64237585
v -37.32164551 2.98025269 -2.12104700
v -43.46778857 2.98025269 -2.65876477
v -37.32012891 2.99040796 -2.13838794
v -43.46627148 2.99040796 -2.67610571
v -37.31855469 2.99862573 -2.15637683
v -43.46469775 2.99862573 -2.69409460
v -37.31695117 3.00488477 -2.17470825
v -43.46309375 3.00488477 -2.71242603
v -37.31534277 3.00922217 -2.19309058
v -43.46148535 3.00922217 -2.73080847
v -37.31375293 3.01172681 -2.21125879
v -43.45989600 3.01172681 -2.74897656
v -37.31220215 3.01252759 -2.22898218
v -43.45834521 3.01252759 -2.76670007
v -37.31065234 3.01172681 -2.24670569
v -43.45679492 3.01172681 -2.78442346
v -37.30906250 3.00922217 -2.26487378
v -43.45520508 3.00922217 -2.80259167
v -37.30745410 3.00488477 -2.28325623
v -43.45359717 3.00488477 -2.82097400
v -37.30585059 2.99862573 -2.30158765
v -43.45199316 2.99862573 -2.83930542
v -37.30427637 2.99040796 -2.31957654
v -43.45041943 2.99040796 -2.85729431
v -37.30275977 2.98025269 -2.33691748
v -43.44890234 2.98025269 -2.87463525
v -37.30132520 2.96824561 -2.35330640
v -43.44746826 2.96824561 -2.89102417
v -37.30000000 2.95453491 -2.36845654
v -43.44614307 2.95453491 -2.90617444
v -37.29880469 2.93932666 -2.38211523
v -43.44494824 2.93932666 -2.91983301
v -37.29775879 2.92287524 -2.39407666
v -43.44390137 2.92287524 -2.93179449
v -37.29687305 2.90546802 -2.40419312
v -43.44301660 2.90546802 -2.94191101
v -37.29615723 2.88741040 -2.41237976
v -43.44230029 2.88741040 -2.95009760
v -37.29561133 2.86900903 -2.41861487
v -43.44175488 2.86900903 -2.95633264
v -37.29523340 2.85055640 -2.42293579
v -43.44137646 2.85055640 -2.96065363
v -37.29501562 2.83231885 -2.42543091
v -43.44115820 2.83231885 -2.96314868
v -37.29494531 2.81452759 -2.42622876
v -43.44108838 2.81452759 -2.96394659
v -37.29501562 2.79673657 -2.42543091
v -43.44115820 2.79673657 -2.96314868
v -37.29523340 2.77849902 -2.42293579
v -43.44137646 2.77849902 -2.96065363
v -37.29561133 2.76004639 -2.41861487
v -43.44175488 2.76004639 -2.95633264
v -37.29615723 2.74164502 -2.41237976
v -43.44230029 2.74164502 -2.95009760
v -37.29687305 2.72358740 -2.40419312
v -43.44301660 2.72358740 -2.94191101
v -37.29775879 2.70618018 -2.39407666
v -43.44390137 2.70618018 -2.93179449
v -37.29880469 2.68972852 -2.38211523
v -43.44494824 2.68972852 -2.91983301
v -37.30000000 2.67452051 -2.36845654
v -43.44614307 2.67452051 -2.90617444
v -37.30132520 2.66080981 -2.35330640
v -43.44746826 2.66080981 -2.89102417
v -37.30275977 2.64880249 -2.33691748
v -43.44890234 2.64880249 -2.87463525
v -37.30427637 2.63864746 -2.31957654
v -43.45041943 2.63864746 -2.85729431
v -37.30585059 2.63042969 -2.30158765
v -43.45199316 2.63042969 -2.83930542
v -37.30745410 2.62417065 -2.28325623
v -43.45359717 2.62417065 -2.82097400
v -37.30906250 2.61983325 -2.26487378
v -43.45520508 2.61983325 -2.80259167
v -37.31065234 2.61732861 -2.24670569
v -43.45679492 2.61732861 -2.78442346
v -37.31220215 -2.61652759 -2.22898218
v -43.45834521 -2.61652759 -2.76670007
v -37.31065234 -2.61732861 -2.24670569
v -43.45679492 -2.61732861 -2.78442346
v -37.30906250 -2.61983325 -2.26487378
v -43.45520508 -2.61983325 -2.80259167
v -37.30745410 -2.62417065 -2.28325623
v -43.45359717 -2.62417065 -2.82097400
v -37.30585059 -2.63042969 -2.30158765
v -43.45199316 -2.63042969 -2.83930542
v -37.30427637 -2.63864746 -2.31957654
v -43.45041943 -2.63864746 -2.85729431
v -37.30275977 -2.64880249 -2.33691748
v -43.44890234 -2.64880249 -2.87463525
v -37.30132520 -2.66080981 -2.35330640
v -43.44746826 -2.66080981 -2.89102417
v -37.30000000 -2.67452051 -2.36845654
v -43.44614307 -2.67452051 -2.90617444
v -37.29880469 -2.68972852 -2.38211523
v -43.44494824 -2.68972852 -2.91983301
v -37.29775879 -2.70618018 -2.39407666
v -43.44390137 -2.70618018 -2.93179449
v -37.29687305 -2.72358740 -2.40419312
v -43.44301660 -2.72358740 -2.94191101
v -37.29615723 -2.74164502 -2.41237976
v -43.44230029 -2.74164502 -2.95009760
v -37.29561133 -2.76004639 -2.41861487
v -43.44175488 -2.76004639 -2.95633264
v -37.29523340 -2.77849902 -2.42293579
v -43.44137646 -2.77849902 -2.96065363
v -37.29501562 -2.79673657 -2.42543091
v -43.44115820 -2.79673657 -2.96314868
v -37.29494531 -2.81452759 -2.42622876
v -43.44108838 -2.81452759 -2.96394659
v -37.29501562 -2.83231885 -2.42543091
v -43.44115820 -2.83231885 -2.96314868
v -37.29523340 -2.85055640 -2.42293579
v -43.44137646 -2.85055640 -2.96065363
v -37.29561133 -2.86900903 -2.41861487
v -43.44175488 -2.86900903 -2.95633264
v -37.29615723 -2.88741040 -2.41237976
v -43.44230029 -2.88741040 -2.95009760
v -37.29687305 -2.90546802 -2.40419312
v -43.44301660 -2.90546802 -2.94191101
v -37.29775879 -2.92287524 -2.39407666
v -43.44390137 -2.92287524 -2.93179449
v -37.29880469 -2.93932666 -2.38211523
v -43.44494824 -2.93932666 -2.91983301
v -37.30000000 -2.95453491 -2.36845654
v -43.44614307 -2.95453491 -2.90617444
v -37.30132520 -2.96824561 -2.35330640
v -43.44746826 -2.96824561 -2.89102417
v -37.30275977 -2.98025269 -2.33691748
v -43.44890234 -2.98025269 -2.87463525
v -37.30427637 -2.99040796 -2.31957654
v -43.45041943 -2.99040796 -2.85729431
v -37.30585059 -2.99862573 -2.30158765
v -43.45199316 -2.99862573 -2.83930542
v -37.30745410 -3.00488477 -2.28325623
v -43.45359717 -3.00488477 -2.82097400
v -37.30906250 -3.00922217 -2.26487378
v -43.45520508 -3.00922217 -2.80259167
v -37.31065234 -3.01172681 -2.24670569
v -43.45679492 -3.01172681 -2.78442346
v -37.31220215 -3.01252759 -2.22898218
v -43.45834521 -3.01252759 -2.76670007
v -37.31375293 -3.01172681 -2.21125879
v -43.45989600 -3.01172681 -2.74897656
v -37.31534277 -3.00922217 -2.19309058
v -43.46148535 -3.00922217 -2.73080847
v -37.31695117 -3.00488477 -2.17470825
v -43.46309375 -3.00488477 -2.71242603
v -37.31855469 -2.99862573 -2.15637683
v -43.46469775 -2.99862573 -2.69409460
v -37.32012891 -2.99040796 -2.13838794
v -43.46627148 -2.99040796 -2.67610571
v -37.32164551 -2.98025269 -2.12104700
v -43.46778857 -2.98025269 -2.65876477
v -37.32307910 -2.96824561 -2.10465808
v -43.46922217 -2.96824561 -2.64237585
v -37.32440527 -2.95453491 -2.08950781
v -43.47054785 -2.95453491 -2.62722571
v -37.32559961 -2.93932666 -2.07584924
v -43.47174268 -2.93932666 -2.61356702
v -37.32664648 -2.92287524 -2.06388770
v -43.47278906 -2.92287524 -2.60160559
v -37.32753125 -2.90546802 -2.05377124
v -43.47367432 -2.90546802 -2.59148914
v -37.32824805 -2.88741040 -2.04558472
v -43.47439062 -2.88741040 -2.58330249
v -37.32879297 -2.86900903 -2.03934961
v -43.47493604 -2.86900903 -2.57706738
v -37.32917090 -2.85055640 -2.03502856
v -43.47531396 -2.85055640 -2.57274646
v -37.32938965 -2.83231885 -2.03253357
v -43.47553223 -2.83231885 -2.57025134
v -37.32945898 -2.81452759 -2.03173560
v -43.47560205 -2.81452759 -2.56945349
v -37.32938965 -2.79673657 -2.03253357
v -43.47553223 -2.79673657 -2.57025134
v -37.32917090 -2.77849902 -2.03502856
v -43.47531396 -2.77849902 -2.57274646
v -37.32879297 -2.76004639 -2.03934961
v -43.47493604 -2.76004639 -2.57706738
v -37.32824805 -2.74164502 -2.04558472
v -43.47439062 -2.74164502 -2.58330249
v -37.32753125 -2.72358740 -2.05377124
v -43.47367432 -2.72358740 -2.59148914
v -37.32664648 -2.70618018 -2.06388770
v -43.47278906 -2.70618018 -2.60160559
v -37.32559961 -2.68972852 -2.07584924
v -43.47174268 -2.68972852 -2.61356702
v -37.32440527 -2.67452051 -2.08950781
v -43.47054785 -2.67452051 -2.62722571
v -37.32307910 -2.66080981 -2.10465808
v -43.46922217 -2.66080981 -2.64237585
v -37.32164551 -2.64880249 -2.12104700
v -43.46778857 -2.64880249 -2.65876477
v -37.32012891 -2.63864746 -2.13838794
v -43.46627148 -2.63864746 -2.67610571
v -37.31855469 -2.63042969 -2.15637683
v -43.46469775 -2.63042969 -2.69409460
v -37.31695117 -2.62417065 -2.17470825
v -43.46309375 -2.62417065 -2.71242603
v -37.31534277 -2.61983325 -2.19309058
v -43.46148535 -2.61983325 -2.73080847
v -37.31375293 -2.61732861 -2.21125879
v -43.45989600 -2.61732861 -2.74897656
f 1 3 4
f 1 4 2
f 3 5 6
f 3 6 4
f 5 7 8
f 5 8 6
f 7 9 10
f 7 10 8
f 9 11 12
f 9 12 10
f 11 13 14
f 11 14 12
f 13 15 16
f 13 16 14
f 15 17 18
f 15 18 16
f 17 19 20
f 17 20 18
f 19 21 22
f 19 22 20
f 21 23 24
f 21 24 22
f 23 25 26
f 23 26 24
f 25 27 28
f 25 28 26
f 27 29 30
f 27 30 28
f 29 31 32
f 29 32 30
f 31 33 34
f 31 34 32
f 33 35 36
f 33 36 34
f 35 37 38
f 35 38 36
f 37 39 40
f 37 40 38
f 39 41 42
f 39 42 40
f 41 43 44
f 41 44 42
f 43 45 46
f 43 46 44
f 45 47 48
f 45 48 46
f 47 49 50
f 47 50 48
f 49 51 52
f 49 52 50
f 51 53 54
f 51 54 52
f 53 55 56
f 53 56 54
f 55 57 58
f 55 58 56
f 57 59 60
f 57 60 58
f 59 61 62
f 59 62 60
f 61 63 64
f 61 64 62
f 63 65 66
f 63 66 64
f 65 67 68
f 65 68 66
f 67 69 70
f 67 70 68
f 69 71 72
f 69 72 70
f 71 73 74
f 71 74 72
f 73 75 76
f 73 76 74
f 75 77 78
f 75 78 76
f 77 79 80
f 77 80 78
f 79 81 82
f 79 82 80
f 81 83 84
f 81 84 82
f 83 85 86
f 83 86 84
f 85 87 88
f 85 88 86
f 87 89 90
f 87 90 88
f 89 91 92
f 89 92 90
f 91 93 94
f 91 94 92
f 93 95 96
f 93 96 94
f 95 97 98
f 95 98 96
f 97 99 100
f 97 100 98
f 99 101 102
f 99 102 100
f 101 103 104
f 101 104 102
f 103 105 106
f 103 106 104
f 105 107 108
f 105 108 106
f 107 109 110
f 107 110 108
f 109 111 112
f 109 112 110
f 111 113 114
f 111 114 112
f 113 115 116
f 113 116 114
f 115 117 118
f 115 118 116
f 117 119 120
f 117 120 118
f 119 121 122
f 119 122 120
f 121 123 124
f 121 124 122
f 123 125 126
f 123 126 124
f 125 127 128
f 125 128 126
f 127 1 2
f 127 2 128
f 79 77 75
f 71 79 75
f 57 79 71
f 71 69 67
f 71 75 73
f 71 67 61
f 83 81 79
f 95 93 91
f 85 51 125
f 119 91 85
f 85 91 87
f 87 91 89
f 51 85 79
f 85 83 79
f 95 91 107
f 63 67 65
f 61 67 63
f 71 61 59
f 51 57 55
f 55 53 51
f 59 57 71
f 79 57 51
f 47 51 49
f 45 43 41
f 47 45 51
f 39 45 41
f 39 37 35
f 45 127 51
f 7 45 39
f 39 35 33
f 97 95 99
f 95 107 101
f 107 103 101
f 103 107 105
f 111 109 107
f 91 115 111
f 111 107 91
f 113 111 115
f 119 117 115
f 121 119 85
f 85 123 121
f 125 51 127
f 1 127 45
f 85 125 123
f 115 91 119
f 45 3 1
f 21 15 23
f 21 19 17
f 27 25 23
f 29 33 31
f 29 23 13
f 29 27 23
f 39 33 29
f 13 11 39
f 7 39 11
f 11 9 7
f 15 21 17
f 13 23 15
f 39 29 13
f 7 5 45
f 45 5 3
f 99 95 101
f 80 76 78
f 72 76 80
f 58 72 80
f 72 68 70
f 72 74 76
f 72 62 68
f 84 80 82
f 96 92 94
f 86 126 52
f 120 86 92
f 86 88 92
f 88 90 92
f 52 80 86
f 86 80 84
f 96 108 92
f 64 66 68
f 62 64 68
f 72 60 62
f 52 56 58
f 56 52 54
f 60 72 58
f 80 52 58
f 48 50 52
f 46 42 44
f 48 52 46
f 40 42 46
f 40 36 38
f 46 52 128
f 8 40 46
f 40 34 36
f 98 100 96
f 96 102 108
f 108 102 104
f 104 106 108
f 112 108 110
f 92 112 116
f 112 92 108
f 114 116 112
f 120 116 118
f 122 86 120
f 86 122 124
f 126 128 52
f 2 46 128
f 86 124 126
f 116 120 92
f 46 2 4
f 22 24 16
f 22 18 20
f 28 24 26
f 30 32 34
f 30 14 24
f 30 24 28
f 40 30 34
f 14 40 12
f 8 12 40
f 12 8 10
f 16 18 22
f 14 16 24
f 40 14 30
f 8 46 6
f 46 4 6
f 100 102 96
f 129 131 132
f 129 132 130
f 131 133 134
f 131 134 132
f 133 135 136
f 133 136 134
f 135 137 138
f 135 138 136
f 137 139 140
f 137 140 138
f 139 141 142
f 139 142 140
f 141 143 144
f 141 144 142
f 143 145 146
f 143 146 144
f 145 147 148
f 145 148 146
f 147 149 150
f 147 150 148
f 149 151 152
f 149 152 150
f 151 153 154
f 151 154 152
f 153 155 156
f 153 156 154
f 155 157 158
f 155 158 156
f 157 159 160
f 157 160 158
f 159 161 162
f 159 162 160
f 161 163 164
f 161 164 162
f 163 165 166
f 163 166 164
f 165 167 168
f 165 168 166
f 167 169 170
f 167 170 168
f 169 171 172
f 169 172 170
f 171 173 174
f 171 174 172
f 173 175 176
f 173 176 174
f 175 177 178
f 175 178 176
f 177 179 180
f 177 180 178
f 179 181 182
f 179 182 180
f 181 183 184
f 181 184 182
f 183 185 186
f 183 186 184
f 185 187 188
f 185 188 186
f 187 189 190
f 187 190 188
f 189 191 192
f 189 192 190
f 191 193 194
f 191 194 192
f 193 195 196
f 193 196 194
f 195 197 198
f 195 198 196
f 197 199 200
f 197 200 198
f 199 201 202
f 199 202 200
f 201 203 204
f 201 204 202
f 203 205 206
f 203 206 204
f 205 207 208
f 205 208 206
f 207 209 210
f 207 210 208
f 209 211 212
f 209 212 210
f 211 213 214
f 211 214 212
f 213 215 216
f 213 216 214
f 215 217 218
f 215 218 216
f 217 219 220
f 217 220 218
f 219 221 222
f 219 222 220
f 221 223 224
f 221 224 222
f 223 225 226
f 223 226 224
f 225 227 228
f 225 228 226
f 227 229 230
f 227 230 228
f 229 231 232
f 229 232 230
f 231 233 234
f 231 234 232
f 233 235 236
f 233 236 234
f 235 237 238
f 235 238 236
f 237 239 240
f 237 240 238
f 239 241 242
f 239 242 240
f 241 243 244
f 241 244 242
f 243 245 246
f 243 246 244
f 245 247 248
f 245 248 246
f 247 249 250
f 247 250 248
f 249 251 252
f 249 252 250
f 251 253 254
f 251 254 252
f 253 255 256
f 253 256 254
f 255 129 130
f 255 130 256
f 137 167 139
f 139 143 141
f 137 135 173
f 129 211 131
f 131 209 133
f 255 211 129
f 139 167 143
f 155 153 151
f 157 155 149
f 157 149 167
f 143 149 147
f 149 155 151
f 143 167 149
f 143 147 145
f 135 133 173
f 219 249 245
f 233 219 245
f 219 251 249
f 245 249 247
f 245 243 241
f 241 239 245
f 253 251 219
f 233 239 237
f 237 235 233
f 239 233 245
f 225 231 229
f 229 227 225
f 225 233 231
f 225 219 233
f 255 253 219
f 157 161 159
f 167 163 161
f 163 167 165
f 137 173 167
f 167 173 171
f 179 173 133
f 171 169 167
f 175 173 179
f 205 179 133
f 179 183 181
f 183 179 187
f 201 187 179
f 187 191 189
f 185 183 187
f 177 175 179
f 191 187 197
f 211 215 213
f 131 211 209
f 219 215 211
f 219 223 221
f 219 211 255
f 219 217 215
f 225 223 219
f 205 201 179
f 197 195 193
f 201 199 197
f 207 205 209
f 205 203 201
f 205 133 209
f 187 201 197
f 197 193 191
f 161 157 167
f 138 140 168
f 140 142 144
f 138 174 136
f 130 132 212
f 132 134 210
f 256 130 212
f 140 144 168
f 156 152 154
f 158 150 156
f 158 168 150
f 144 148 150
f 150 152 156
f 144 150 168
f 144 146 148
f 136 174 134
f 220 246 250
f 234 246 220
f 220 250 252
f 246 248 250
f 246 242 244
f 242 246 240
f 254 220 252
f 234 238 240
f 238 234 236
f 240 246 234
f 226 230 232
f 230 226 228
f 226 232 234
f 226 234 220
f 256 220 254
f 158 160 162
f 168 162 164
f 164 166 168
f 138 168 174
f 168 172 174
f 180 134 174
f 172 168 170
f 176 180 174
f 206 134 180
f 180 182 184
f 184 188 180
f 202 180 188
f 188 190 192
f 186 188 184
f 178 180 176
f 192 198 188
f 212 214 216
f 132 210 212
f 220 212 216
f 220 222 224
f 220 256 212
f 220 216 218
f 226 220 224
f 206 180 202
f 198 194 196
f 202 198 200
f 208 210 206
f 206 202 204
f 206 210 134
f 188 198 202
f 198 192 194
f 162 168 158

